<svg width="299" height="45" viewBox="0 0 299 45" fill="none" xmlns="http://www.w3.org/2000/svg">
<path d="M160.273 0C155.43 0 152.196 3.49581 152.196 7.84099V9.96836H149.981V14.7382H152.196V26.6295H158.669V14.7382H162.927V9.96836H158.669V8.13591C158.669 4.56932 160.972 4.82492 163.173 5.74901V0.617373C163.173 0.617373 161.903 0 160.273 0ZM260.275 0.389293V26.6255H266.748V19.7637L268.638 21.6669L273.555 26.6255H282.696L273.199 17.6756L282.01 9.96443H273.252L269.108 13.822L266.748 16.0202V0.389293H260.275ZM114.341 1.41563C109.459 1.41563 105.113 4.03453 105.113 9.46895C105.113 17.947 116.429 15.218 116.429 19.5356C116.429 20.7271 115.036 21.8675 113.388 21.8675C111.74 21.8675 108.791 21.0653 106.985 19.3744L104.014 24.5021C104.014 24.5021 108.048 27.2665 113.388 27.2665C118.727 27.2665 123.715 24.6279 123.715 18.9497C123.715 10.1257 112.364 12.489 112.364 8.82013C112.364 7.23935 113.801 6.70849 115.405 6.70849C117.554 6.70849 119.861 8.36398 119.861 8.36398L122.616 3.39749C122.616 3.39749 119.048 1.41563 114.341 1.41563ZM33.1919 2.77226C32.8799 2.77226 32.5942 2.77226 32.5547 2.7762C32.5107 2.78013 32.3745 2.78799 32.2515 2.79979C32.124 2.80765 31.8867 2.83518 31.7197 2.85877C31.5527 2.88237 31.3198 2.91776 31.2056 2.93742C31.0913 2.96102 30.876 3.0082 30.7266 3.04359C30.5815 3.07898 30.3706 3.13404 30.2607 3.16943C30.1509 3.20088 29.9575 3.2638 29.8301 3.30706C29.707 3.35031 29.5181 3.42109 29.4126 3.46041C29.3115 3.50367 29.1401 3.57445 29.0391 3.62164C28.9336 3.66489 28.7534 3.75141 28.6392 3.81039C28.5249 3.86938 28.3491 3.96375 28.2568 4.01487C28.1601 4.06992 27.9976 4.16823 27.8965 4.23115C27.7954 4.29407 27.5977 4.42776 27.457 4.53C27.3164 4.6283 27.0967 4.79346 26.9736 4.89963C26.8462 5.00187 26.666 5.1631 26.5693 5.24961C26.477 5.34005 26.3188 5.49341 26.2266 5.59172C26.1299 5.69396 25.9717 5.87092 25.8706 5.98888C25.7739 6.10292 25.6245 6.2956 25.5366 6.41357C25.4531 6.53154 25.3301 6.70849 25.2686 6.80286C25.207 6.90117 25.0796 7.11745 24.9917 7.27868C24.8994 7.44383 24.772 7.70729 24.7017 7.86458C24.6313 8.02188 24.5391 8.24994 24.4995 8.36398C24.4556 8.48195 24.3896 8.69429 24.3501 8.83192C24.3105 8.97349 24.2534 9.20156 24.2227 9.33919C24.1963 9.48076 24.1567 9.68916 24.1435 9.79926C24.126 9.9133 24.104 10.0942 24.0952 10.2004C24.0864 10.3105 24.0776 10.5897 24.0776 10.8256C24.0776 11.0576 24.0864 11.3407 24.0952 11.4469C24.104 11.557 24.126 11.7379 24.1435 11.848C24.1567 11.962 24.1963 12.1704 24.227 12.3159C24.2534 12.4575 24.3149 12.6895 24.3545 12.8311C24.394 12.9726 24.4819 13.2322 24.5478 13.4052C24.6138 13.5821 24.7148 13.8259 24.7764 13.9518C24.8335 14.0776 24.9477 14.2899 25.0225 14.4276C25.1016 14.5652 25.2114 14.754 25.2729 14.8523C25.3345 14.9466 25.4531 15.1197 25.5366 15.2376C25.6245 15.3517 25.7607 15.5286 25.8442 15.6309C25.9277 15.7292 26.0815 15.9022 26.1826 16.0123C26.2881 16.1224 26.4639 16.2993 26.5781 16.4055C26.688 16.5078 26.8813 16.6729 27 16.7752C27.123 16.8735 27.3164 17.0229 27.4307 17.1055C27.5449 17.188 27.7471 17.3217 27.8745 17.4043C28.0063 17.4869 28.2305 17.6206 28.3711 17.6992C28.5161 17.7779 28.771 17.9037 28.9424 17.9824C29.1138 18.065 29.3555 18.1672 29.4829 18.2183C29.6103 18.2655 29.8257 18.3441 29.9663 18.3913C30.1113 18.4346 30.3442 18.5054 30.4893 18.5447C30.6387 18.584 30.8848 18.643 31.0386 18.6784C31.1968 18.7098 31.4517 18.7531 31.6099 18.7767C31.7637 18.8003 32.0142 18.8317 32.168 18.8475C32.3701 18.8671 32.603 18.875 33.0644 18.875C33.4512 18.875 33.7764 18.8671 33.917 18.8553C34.0444 18.8435 34.2817 18.816 34.4443 18.7924C34.6069 18.7688 34.8574 18.7295 34.9936 18.702C35.1343 18.6745 35.3496 18.6273 35.477 18.5958C35.6045 18.5644 35.8286 18.5014 35.9736 18.4582C36.1186 18.4149 36.3208 18.3481 36.4263 18.3127C36.5273 18.2734 36.7427 18.1908 36.9009 18.1239C37.0591 18.061 37.3052 17.947 37.4458 17.8801C37.5864 17.8093 37.8061 17.6914 37.9336 17.6167C38.0654 17.5419 38.2939 17.4004 38.4478 17.2981C38.5972 17.1998 38.7905 17.0622 38.8784 16.9954C38.9663 16.9285 39.1289 16.7987 39.2388 16.7083C39.353 16.6139 39.542 16.4448 39.6606 16.3308C39.7793 16.2168 39.9727 16.0162 40.0913 15.8825C40.21 15.7528 40.3726 15.5601 40.4517 15.4578C40.5352 15.3556 40.6538 15.1904 40.7197 15.0961C40.7856 15.0017 40.8779 14.8601 40.9263 14.7854C40.9746 14.7068 41.0845 14.5141 41.1724 14.3568C41.2602 14.1995 41.3833 13.9557 41.4448 13.8181C41.5063 13.6765 41.5898 13.472 41.6294 13.3619C41.6733 13.2479 41.7393 13.0513 41.7788 12.9176C41.8184 12.7878 41.8799 12.5479 41.915 12.3907C41.9502 12.2334 41.9941 11.9817 42.0161 11.8323C42.0381 11.6828 42.0601 11.4508 42.0732 11.3171C42.082 11.1834 42.0908 10.9593 42.0908 10.8256C42.0908 10.688 42.082 10.4678 42.0732 10.3341C42.0601 10.1964 42.0381 9.96442 42.0161 9.815C41.9941 9.66557 41.9502 9.41783 41.915 9.26054C41.8799 9.09932 41.8184 8.86338 41.7788 8.73362C41.7393 8.59992 41.6733 8.39937 41.6294 8.28927C41.5898 8.17916 41.5107 7.98256 41.4536 7.85672C41.4009 7.73089 41.2778 7.48709 41.1855 7.31407C41.0933 7.14498 40.9658 6.92084 40.8999 6.82253C40.8384 6.72422 40.6846 6.50794 40.5615 6.33885C40.4385 6.1737 40.2319 5.92203 40.1045 5.7844C39.9814 5.64284 39.7837 5.43836 39.665 5.32825C39.5508 5.21815 39.3574 5.04513 39.2388 4.94289C39.1201 4.84459 38.9487 4.70695 38.8564 4.6401C38.7642 4.56932 38.5928 4.44742 38.4697 4.36877C38.3511 4.28619 38.1797 4.18002 38.0962 4.12497C38.0083 4.07385 37.8325 3.97554 37.7051 3.90476C37.5732 3.83791 37.3359 3.71994 37.1733 3.64523C37.0107 3.57052 36.7471 3.46041 36.5845 3.39749C36.4219 3.33851 36.1362 3.24021 35.9429 3.18122C35.7495 3.12617 35.4463 3.04752 35.2661 3.00426C35.0815 2.96494 34.8135 2.91383 34.6685 2.89024C34.5234 2.86664 34.2598 2.83125 34.084 2.81159C33.8379 2.78799 33.6226 2.77619 33.1919 2.77226ZM33.1743 5.23388C33.4775 5.23781 33.728 5.2496 33.8599 5.26533C33.9785 5.28106 34.1807 5.30859 34.3081 5.33219C34.4399 5.35578 34.6728 5.4069 34.8267 5.44623C34.9805 5.48555 35.2222 5.56026 35.3672 5.61138C35.5122 5.6625 35.7363 5.75294 35.8638 5.80799C35.9956 5.86697 36.1846 5.95743 36.2856 6.01248C36.3867 6.06753 36.5493 6.1619 36.646 6.22089C36.7383 6.27987 36.9009 6.38604 37.0019 6.46075C37.103 6.53153 37.3008 6.69276 37.4414 6.81466C37.582 6.93656 37.7754 7.12138 37.8721 7.22755C37.9731 7.32979 38.1094 7.48708 38.1797 7.57752C38.25 7.66796 38.373 7.83312 38.4478 7.94716C38.5225 8.06119 38.6235 8.21848 38.6675 8.30106C38.7158 8.38364 38.7905 8.52914 38.8389 8.62745C38.8828 8.72576 38.9575 8.89091 38.9971 8.99709C39.0366 9.09933 39.0981 9.28021 39.1333 9.39818C39.1641 9.51614 39.2124 9.71277 39.2388 9.83467C39.2651 9.95657 39.2959 10.1374 39.3091 10.2358C39.3223 10.338 39.331 10.5857 39.331 10.8256C39.331 11.0615 39.3223 11.3093 39.3091 11.4154C39.2959 11.5137 39.2651 11.6946 39.2388 11.8165C39.2124 11.9384 39.1641 12.1351 39.1333 12.253C39.0981 12.3671 39.0366 12.5479 38.9971 12.6541C38.9575 12.7603 38.8828 12.9254 38.8389 13.0237C38.7905 13.1221 38.707 13.2794 38.6543 13.3737C38.5972 13.4681 38.5005 13.6293 38.4346 13.7276C38.3687 13.8259 38.2456 13.9872 38.1665 14.0894C38.0874 14.1877 37.9644 14.3293 37.894 14.4079C37.8237 14.4826 37.6611 14.6439 37.5337 14.7579C37.4018 14.8719 37.2349 15.0174 37.1514 15.0803C37.0723 15.1393 36.9141 15.2534 36.7998 15.3281C36.6899 15.4028 36.5098 15.5129 36.4043 15.5719C36.3032 15.6309 36.0923 15.7331 35.9429 15.8039C35.7891 15.8747 35.5518 15.973 35.4155 16.0202C35.2793 16.0713 35.0727 16.1381 34.9585 16.1696C34.8442 16.201 34.686 16.2404 34.6069 16.26C34.5234 16.2758 34.3696 16.3072 34.2642 16.3269C34.1587 16.3426 33.9785 16.3701 33.8643 16.3859C33.7456 16.3976 33.4687 16.4134 33.2446 16.4213C32.9897 16.4252 32.7436 16.4213 32.5767 16.4095C32.4316 16.3977 32.1987 16.3701 32.0537 16.3505C31.9131 16.3308 31.6934 16.2876 31.5703 16.26C31.4429 16.2325 31.2187 16.1735 31.0737 16.1303C30.9243 16.0831 30.687 16.0044 30.5508 15.9494C30.4145 15.8943 30.1948 15.8 30.0674 15.7331C29.9355 15.6702 29.729 15.5601 29.606 15.4854C29.4785 15.4107 29.2764 15.277 29.1489 15.1865C29.0259 15.0961 28.8018 14.9152 28.6479 14.7775C28.4985 14.6399 28.3008 14.4512 28.2129 14.3489C28.125 14.2506 27.9844 14.0855 27.9097 13.9793C27.8306 13.8771 27.7251 13.7276 27.6724 13.649C27.6196 13.5664 27.5361 13.4327 27.4878 13.3423C27.4351 13.2558 27.356 13.0945 27.3032 12.9844C27.2505 12.8743 27.1758 12.6934 27.1362 12.5833C27.0923 12.4732 27.0351 12.2845 27 12.1626C26.9648 12.0407 26.9209 11.8441 26.9033 11.7261C26.8813 11.6081 26.855 11.439 26.8462 11.3447C26.833 11.2503 26.8242 11.0183 26.8242 10.8256C26.8242 10.6329 26.833 10.4009 26.8462 10.3065C26.855 10.2122 26.8813 10.0391 26.9033 9.92118C26.9209 9.80714 26.9648 9.61052 27 9.48469C27.0351 9.35885 27.1011 9.16224 27.145 9.04033C27.189 8.92237 27.2681 8.73362 27.3208 8.62745C27.3735 8.51734 27.4658 8.34039 27.5317 8.23422C27.5933 8.12412 27.6943 7.96289 27.7603 7.87244C27.8218 7.782 27.9404 7.62864 28.0195 7.5264C28.0986 7.42809 28.2612 7.24722 28.3755 7.12925C28.4897 7.01128 28.6743 6.84218 28.7798 6.75174C28.8896 6.6613 29.0742 6.51974 29.1885 6.43716C29.3071 6.35458 29.5049 6.22481 29.6279 6.1501C29.7554 6.07932 29.9487 5.96922 30.063 5.91417C30.1772 5.85912 30.3706 5.7726 30.4937 5.72542C30.6167 5.6743 30.8188 5.59958 30.9463 5.56025C31.0737 5.517 31.2803 5.45802 31.4033 5.43049C31.5264 5.39904 31.7285 5.35578 31.8516 5.33219C31.979 5.31253 32.1811 5.28106 32.3042 5.26533C32.4316 5.25354 32.5723 5.23781 32.6162 5.23388C32.6601 5.22995 32.915 5.22995 33.1743 5.23388ZM53.5166 8.14771C53.4639 8.14771 53.3672 8.15164 53.2969 8.15557C53.2266 8.15557 53.064 8.16737 52.9365 8.17916C52.8135 8.18703 52.6025 8.21062 52.4707 8.22635C52.3389 8.24601 52.1235 8.28141 51.9873 8.30893C51.8511 8.33646 51.6357 8.38757 51.5083 8.42296C51.3809 8.45442 51.1655 8.52128 51.0249 8.56847C50.8843 8.61565 50.6294 8.71396 50.4624 8.78474C50.2998 8.85552 50.0361 8.98135 49.8867 9.06393C49.7373 9.14257 49.5088 9.27628 49.3813 9.36279C49.2539 9.44536 49.0605 9.57907 48.9507 9.66164C48.8408 9.74029 48.6387 9.90938 48.5024 10.0313C48.3662 10.1532 48.1772 10.338 48.0806 10.4402C47.9839 10.5425 47.8696 10.6722 47.8213 10.7273C47.7773 10.7823 47.6719 10.916 47.5884 11.0301C47.5049 11.1402 47.3686 11.3407 47.2851 11.4784C47.2017 11.6121 47.0786 11.8283 47.0127 11.962C46.9468 12.0918 46.8589 12.2963 46.8105 12.4103C46.7666 12.5243 46.6963 12.7249 46.6523 12.8586C46.6128 12.9923 46.5557 13.2125 46.5249 13.3462C46.4941 13.4838 46.459 13.6962 46.4414 13.8181C46.4238 13.94 46.4062 14.2152 46.4018 14.4315C46.3931 14.6714 46.3975 14.9152 46.4106 15.0567C46.4238 15.1826 46.4502 15.3871 46.4722 15.5168C46.4897 15.6427 46.5337 15.8432 46.5601 15.9651C46.5908 16.087 46.6479 16.2876 46.6919 16.4095C46.7314 16.5314 46.8061 16.728 46.8589 16.8499C46.9072 16.9718 47.0215 17.2038 47.1094 17.3689C47.1973 17.5302 47.3335 17.7582 47.4126 17.8762C47.4917 17.9942 47.6147 18.1632 47.6851 18.2537C47.7554 18.3441 47.8916 18.5054 47.9883 18.6155C48.085 18.7216 48.3135 18.9458 48.5024 19.1149C48.6914 19.28 48.9419 19.4884 49.0649 19.5789C49.1836 19.6654 49.3989 19.803 49.5395 19.8895C49.6802 19.976 49.8779 20.0861 49.979 20.1373C50.0757 20.1884 50.2559 20.2749 50.3745 20.326C50.4888 20.3811 50.6909 20.4636 50.814 20.5069C50.937 20.5541 51.1611 20.6288 51.3105 20.676C51.4643 20.7192 51.7017 20.7822 51.8467 20.8136C51.9873 20.8451 52.2202 20.8883 52.3608 20.908C52.5015 20.9316 52.7168 20.9591 52.8354 20.9709C52.9717 20.9827 53.2661 20.9906 53.5869 20.9906C53.9824 20.9906 54.189 20.9827 54.3867 20.9591C54.5317 20.9434 54.7602 20.9119 54.8921 20.8923C55.0239 20.8687 55.2436 20.8254 55.3755 20.794C55.5117 20.7664 55.7314 20.7074 55.8589 20.6642C55.9907 20.6249 56.1621 20.5698 56.2412 20.5423C56.3203 20.5148 56.4829 20.4519 56.6016 20.4007C56.7246 20.3535 56.9268 20.2592 57.0542 20.1962C57.186 20.1294 57.4058 20.0114 57.5464 19.9249C57.687 19.8423 57.9067 19.7008 58.0342 19.6103C58.1572 19.5199 58.3462 19.3744 58.4517 19.2879C58.5615 19.2014 58.7285 19.0519 58.8296 18.9536C58.9263 18.8553 59.0889 18.6902 59.1855 18.5801C59.2822 18.4739 59.436 18.2852 59.5283 18.1633C59.6206 18.0414 59.7524 17.8526 59.8183 17.7464C59.8887 17.6363 59.9941 17.4554 60.0513 17.3453C60.1084 17.2352 60.1963 17.0543 60.249 16.9442C60.2974 16.8341 60.3677 16.6651 60.4028 16.5628C60.438 16.4645 60.4907 16.2994 60.5215 16.1971C60.5522 16.0909 60.6006 15.9101 60.6226 15.7921C60.6489 15.678 60.6841 15.4854 60.6973 15.3674C60.7148 15.2494 60.7368 15.0253 60.7412 14.868C60.75 14.7107 60.75 14.4472 60.7412 14.286C60.7368 14.1209 60.7148 13.9007 60.7017 13.7866C60.6841 13.6765 60.6533 13.5035 60.6357 13.4012C60.6138 13.3029 60.5654 13.1063 60.5259 12.9726C60.4863 12.8389 60.4248 12.6463 60.3852 12.5479C60.3501 12.4457 60.2798 12.2727 60.227 12.1626C60.1743 12.0485 60.0732 11.848 60.0029 11.7182C59.9282 11.5845 59.8227 11.4115 59.77 11.3329C59.7173 11.2503 59.603 11.0891 59.5151 10.9711C59.4272 10.8571 59.269 10.6644 59.1636 10.5464C59.0581 10.4284 58.8735 10.2397 58.7505 10.1257C58.6274 10.0116 58.4473 9.85432 58.3506 9.77961C58.2495 9.70096 58.1133 9.59872 58.043 9.5476C57.9727 9.49648 57.8232 9.39818 57.7134 9.3274C57.5991 9.25662 57.4101 9.14651 57.2915 9.07966C57.1684 9.01281 56.9443 8.90271 56.7861 8.83192C56.6279 8.76114 56.4126 8.6707 56.3027 8.63137C56.1885 8.58812 56.0171 8.52914 55.9116 8.49768C55.8105 8.46622 55.6216 8.41511 55.4897 8.38365C55.3623 8.35219 55.1338 8.305 54.98 8.27747C54.8306 8.24994 54.602 8.21455 54.479 8.20275C54.3516 8.18703 54.1055 8.16737 53.9297 8.15951C53.7495 8.15164 53.5649 8.14771 53.5166 8.14771ZM12.0937 8.15165C12.0366 8.15558 11.8784 8.16737 11.7422 8.17916C11.606 8.18703 11.3555 8.21849 11.1841 8.24208C11.0127 8.26961 10.7578 8.3168 10.6172 8.34826C10.4766 8.37972 10.2393 8.44263 10.0942 8.48588C9.94921 8.53307 9.7251 8.60779 9.59766 8.65498C9.47461 8.70217 9.25927 8.79261 9.12744 8.85159C8.99121 8.91451 8.79785 9.00888 8.69677 9.06393C8.59131 9.11898 8.41552 9.22515 8.29687 9.29593C8.18261 9.37065 7.98925 9.50042 7.8706 9.58693C7.74755 9.66951 7.49707 9.87398 7.31689 10.0391C7.13672 10.2004 6.9082 10.4206 6.81152 10.5307C6.71484 10.6368 6.5874 10.7902 6.52588 10.8649C6.46435 10.9436 6.36767 11.0733 6.30615 11.1598C6.24463 11.2464 6.14355 11.4036 6.07763 11.5138C6.01171 11.6199 5.91064 11.8008 5.8579 11.9109C5.80078 12.021 5.71289 12.2098 5.66015 12.3356C5.60742 12.4575 5.53271 12.6698 5.48877 12.8075C5.44482 12.9412 5.3833 13.1692 5.35254 13.3108C5.32177 13.4484 5.28222 13.6569 5.26904 13.767C5.25146 13.881 5.22949 14.1091 5.2207 14.2742C5.20752 14.4787 5.20752 14.6792 5.2207 14.8837C5.22949 15.0489 5.24707 15.2494 5.25586 15.3241C5.26904 15.4028 5.29101 15.5561 5.31299 15.6623C5.33496 15.7724 5.3833 15.9769 5.42285 16.1224C5.4624 16.2679 5.5415 16.5078 5.59424 16.6493C5.65137 16.7948 5.73926 16.9993 5.7876 17.1094C5.84033 17.2156 5.9414 17.4083 6.01611 17.5341C6.09081 17.6599 6.21386 17.8565 6.29297 17.9666C6.36767 18.0807 6.49511 18.2498 6.57421 18.3441C6.64892 18.4385 6.77637 18.584 6.85986 18.6705C6.93896 18.757 7.07519 18.8986 7.16308 18.9812C7.25097 19.0677 7.42236 19.2171 7.54101 19.3154C7.65966 19.4098 7.84424 19.5514 7.94971 19.6261C8.05517 19.7008 8.23095 19.8148 8.33642 19.8777C8.44189 19.9446 8.60449 20.039 8.70117 20.0901C8.79785 20.1412 8.99121 20.2356 9.13184 20.3024C9.27246 20.3653 9.47021 20.4519 9.57129 20.4872C9.67236 20.5266 9.84375 20.5855 9.95361 20.6209C10.0635 20.6603 10.27 20.7192 10.4062 20.7546C10.5469 20.79 10.7798 20.8411 10.9248 20.8687C11.0654 20.8923 11.2808 20.9277 11.395 20.9395C11.5137 20.9552 11.7202 20.9748 11.8652 20.9866C12.019 20.9945 12.2915 20.9984 12.5596 20.9945C12.8013 20.9906 13.1045 20.9748 13.2319 20.9591C13.3594 20.9473 13.5747 20.9159 13.7109 20.8923C13.8472 20.8726 14.0669 20.8254 14.2031 20.794C14.335 20.7664 14.5547 20.7074 14.6865 20.6681C14.8184 20.6288 15.0161 20.562 15.1304 20.5187C15.2446 20.4754 15.46 20.385 15.6138 20.3181C15.7676 20.2513 15.9873 20.1412 16.106 20.0783C16.2202 20.0154 16.3916 19.9131 16.4883 19.8541C16.5806 19.7952 16.7651 19.6733 16.8926 19.5828C17.02 19.4924 17.2529 19.3036 17.4111 19.1621C17.5737 19.0244 17.7935 18.816 17.8989 18.698C18.0044 18.584 18.1626 18.3992 18.2505 18.293C18.334 18.1868 18.4702 18.006 18.5449 17.888C18.624 17.774 18.7427 17.5734 18.8174 17.4436C18.8877 17.3139 18.9888 17.1212 19.0371 17.015C19.0854 16.9089 19.1689 16.7083 19.2173 16.5667C19.27 16.4291 19.3271 16.2561 19.3491 16.1814C19.3711 16.1067 19.4062 15.9533 19.4326 15.8432C19.459 15.7331 19.4941 15.5365 19.5161 15.3989C19.5425 15.2376 19.5557 15.0135 19.5644 14.7343C19.5688 14.4748 19.5644 14.231 19.5513 14.0894C19.5425 13.9636 19.5161 13.7552 19.4941 13.6293C19.4722 13.5035 19.4282 13.2872 19.3931 13.1456C19.3579 13.0041 19.292 12.7957 19.2524 12.6777C19.2129 12.5597 19.1338 12.3553 19.0723 12.2176C19.0107 12.08 18.9009 11.8598 18.8262 11.7261C18.7559 11.5924 18.624 11.3801 18.5405 11.2582C18.4614 11.1363 18.334 10.9672 18.2637 10.8767C18.1934 10.7902 18.0747 10.6447 17.9956 10.5582C17.9165 10.4717 17.7671 10.3144 17.666 10.2122C17.5605 10.1139 17.3804 9.9487 17.2661 9.85432C17.1475 9.75602 16.9629 9.61838 16.8574 9.54367C16.752 9.46502 16.5586 9.33919 16.4268 9.26054C16.2949 9.1819 16.1103 9.07572 16.0093 9.0246C15.9126 8.96955 15.6885 8.86731 15.5171 8.7926C15.3413 8.71789 15.104 8.62352 14.9897 8.58026C14.8711 8.54094 14.6821 8.48195 14.5679 8.45049C14.4536 8.41903 14.2778 8.37185 14.1811 8.35218C14.0889 8.32859 13.9263 8.29713 13.8252 8.27747C13.7241 8.25781 13.5571 8.23422 13.4517 8.21849C13.3462 8.20669 13.1748 8.18703 13.0737 8.17916C12.9727 8.1713 12.7353 8.1595 12.542 8.15557C12.3486 8.15164 12.1465 8.15165 12.0937 8.15165ZM174.779 9.34313C170.991 9.34313 164.698 11.1127 164.698 18.3717C164.698 25.6346 171.989 27.2311 174.845 27.2311C177.706 27.2311 184.623 26.3935 184.623 20.562H178.436C178.436 21.9265 177.354 23.0825 175.061 23.0825C172.767 23.0825 171.167 22.009 171.167 19.28H184.645C184.645 18.0807 184.531 16.9364 184.276 15.8707C183.366 12.0407 180.628 9.34313 174.779 9.34313ZM228.814 9.34313C222.223 9.34313 217.92 13.3501 217.92 18.2891C217.92 23.232 222.223 27.2822 228.814 27.2822C235.402 27.2822 239.708 23.232 239.708 18.2891C239.708 13.3501 235.402 9.34313 228.814 9.34313ZM134.846 9.4493C129.894 9.4493 125.881 13.4327 125.881 18.3441C125.881 23.2556 129.894 27.239 134.846 27.239C137.026 27.239 139.025 26.4643 140.577 25.1824V26.6295H147.05V9.93297H140.577V11.502C139.025 10.22 137.026 9.4493 134.846 9.4493ZM185.458 9.94477L192.415 24.7892L193.263 26.6059H197.741L198.483 24.6397L201.406 16.8892L204.333 24.6437L205.071 26.6059H209.544L210.393 24.7892L217.349 9.94477H210.876L207.409 17.7307L204.117 9.94477H198.69L195.403 17.7268L191.931 9.94477H185.458ZM254.114 9.94477C252.132 9.94477 250.528 11.4272 250.528 13.2558C250.528 15.0882 252.132 16.5707 254.114 16.5707C256.096 16.5707 257.7 15.0882 257.7 13.2558C257.704 11.4272 256.096 9.94477 254.114 9.94477ZM242.736 9.95263V26.6098H249.209V9.95263H242.736ZM12.5024 10.6133H12.5068C12.6562 10.6172 12.8672 10.6329 12.9727 10.6447C13.0781 10.6565 13.2627 10.688 13.3813 10.7116C13.5 10.7352 13.7065 10.7863 13.8384 10.8256C13.9702 10.8689 14.1943 10.9514 14.335 11.0144C14.48 11.0773 14.6821 11.1795 14.7964 11.2424C14.9062 11.3093 15.0557 11.4036 15.126 11.4548C15.1963 11.502 15.3237 11.6003 15.4072 11.6671C15.4907 11.7379 15.6357 11.8716 15.728 11.966C15.8203 12.0643 15.9477 12.2098 16.0137 12.2884C16.0752 12.371 16.1763 12.5126 16.2378 12.6069C16.2993 12.7013 16.3872 12.8547 16.4355 12.953C16.4839 13.0513 16.5586 13.2164 16.5981 13.3226C16.6377 13.4288 16.6904 13.6018 16.7168 13.708C16.7432 13.8102 16.7783 13.999 16.7959 14.1248C16.8179 14.2939 16.8223 14.4354 16.8135 14.6871C16.8091 14.9231 16.7959 15.0803 16.7695 15.214C16.7476 15.3202 16.708 15.4814 16.6816 15.5719C16.6553 15.6623 16.6069 15.8117 16.5718 15.9022C16.5366 15.9966 16.4443 16.1814 16.3696 16.319C16.2949 16.4527 16.1719 16.6533 16.0884 16.7594C16.0093 16.8695 15.8774 17.0268 15.7983 17.1133C15.7192 17.1998 15.5698 17.3414 15.4687 17.424C15.3721 17.5105 15.2227 17.6285 15.1435 17.6875C15.0644 17.7464 14.9106 17.8408 14.8052 17.9037C14.6997 17.9666 14.4976 18.0689 14.3569 18.1318C14.2163 18.1908 14.0142 18.2694 13.9175 18.3048C13.8164 18.3363 13.623 18.3874 13.4912 18.4189C13.3594 18.4464 13.166 18.4857 13.0605 18.4975C12.9551 18.5132 12.7134 18.529 12.52 18.5329C12.3003 18.5408 12.0937 18.5368 11.9575 18.525C11.8345 18.5132 11.6235 18.4818 11.4873 18.4582C11.3467 18.4307 11.1182 18.3756 10.9819 18.3363C10.8413 18.293 10.5952 18.2026 10.4326 18.1318C10.2744 18.061 10.0591 17.9509 9.958 17.8919C9.85693 17.8329 9.69433 17.7268 9.60205 17.656C9.50537 17.5891 9.34716 17.4594 9.25048 17.3729C9.1538 17.2864 9.01758 17.1527 8.95166 17.0779C8.88135 17.0032 8.76709 16.8577 8.68798 16.7555C8.61767 16.6572 8.50781 16.4881 8.44628 16.3859C8.38915 16.2836 8.30566 16.1224 8.26611 16.028C8.22217 15.9297 8.16064 15.7646 8.12988 15.6584C8.09473 15.5522 8.04638 15.3753 8.0288 15.2612C8.00683 15.1472 7.98047 14.9466 7.97168 14.8129C7.9585 14.6438 7.9585 14.4984 7.97168 14.3253C7.98047 14.1877 8.00244 14.0147 8.02002 13.936C8.0332 13.8574 8.05517 13.7434 8.07275 13.6844C8.08594 13.6293 8.12109 13.5114 8.14746 13.4327C8.17383 13.3501 8.23095 13.2046 8.2749 13.1063C8.31884 13.0119 8.40234 12.8507 8.45947 12.7485C8.51221 12.6502 8.62207 12.489 8.69238 12.3907C8.76709 12.2923 8.88134 12.1547 8.94287 12.0839C9.00879 12.0132 9.11865 11.903 9.18896 11.8362C9.25927 11.7694 9.40429 11.6435 9.51416 11.5609C9.62402 11.4784 9.80859 11.3525 9.91845 11.2857C10.0327 11.2188 10.2261 11.1166 10.3535 11.0576C10.4766 10.9986 10.6743 10.916 10.793 10.8767C10.9072 10.8374 11.1138 10.7745 11.25 10.743C11.3862 10.7116 11.5796 10.6762 11.6807 10.6604C11.7817 10.6447 11.9487 10.629 12.0454 10.6211C12.1465 10.6133 12.353 10.6093 12.5024 10.6133ZM53.6968 10.6133C53.8286 10.6172 54.0088 10.629 54.0923 10.6368C54.1802 10.6486 54.3516 10.6722 54.479 10.6958C54.602 10.7155 54.8262 10.7706 54.9756 10.8177C55.125 10.861 55.3403 10.9357 55.459 10.9868C55.5732 11.0379 55.749 11.1205 55.8457 11.1716C55.9468 11.2228 56.127 11.3329 56.2456 11.4154C56.3687 11.4941 56.5752 11.6592 56.7026 11.7772C56.8345 11.8912 57.0146 12.0761 57.1025 12.1783C57.186 12.2805 57.3047 12.4378 57.3662 12.5204C57.4233 12.6069 57.5156 12.7681 57.5771 12.8743C57.6343 12.9844 57.7222 13.181 57.7749 13.3187C57.8232 13.4524 57.8804 13.6332 57.9023 13.7198C57.9243 13.8063 57.9507 13.9636 57.9683 14.0737C57.9858 14.1877 57.999 14.3883 57.999 14.5652C57.999 14.7264 57.9902 14.927 57.9771 15.0135C57.9683 15.1 57.9463 15.2337 57.9287 15.3084C57.9155 15.3831 57.8716 15.5365 57.8408 15.6466C57.8057 15.7567 57.7485 15.914 57.7134 16.0005C57.6738 16.0831 57.5947 16.2404 57.5376 16.3426C57.4805 16.4488 57.3882 16.5943 57.3398 16.669C57.2871 16.7437 57.1816 16.8774 57.1113 16.9639C57.0366 17.0504 56.874 17.2156 56.751 17.3335C56.6235 17.4476 56.4565 17.5931 56.373 17.6481C56.2939 17.7071 56.1269 17.8133 56.0083 17.888C55.8853 17.9588 55.6655 18.0728 55.5117 18.1397C55.3623 18.2026 55.1514 18.2852 55.0459 18.3166C54.9404 18.352 54.7559 18.3992 54.6372 18.4267C54.5186 18.4503 54.3296 18.4857 54.2153 18.5014C54.0615 18.525 53.9033 18.529 53.5693 18.5329C53.2309 18.5329 53.0815 18.525 52.9277 18.5014C52.8179 18.4857 52.6245 18.4503 52.5015 18.4228C52.3784 18.3953 52.1851 18.3441 52.0708 18.3088C51.9565 18.2694 51.7895 18.2104 51.6973 18.1711C51.605 18.1318 51.4468 18.0571 51.3501 18.006C51.249 17.9548 51.1128 17.8762 51.0425 17.8329C50.9722 17.7858 50.8315 17.6914 50.7349 17.6206C50.6382 17.5459 50.4712 17.4083 50.3701 17.3139C50.2646 17.2156 50.1196 17.0661 50.0493 16.9796C49.9746 16.8931 49.8691 16.7594 49.812 16.6769C49.7549 16.5982 49.6582 16.437 49.5923 16.319C49.5308 16.201 49.4473 16.0319 49.4121 15.9454C49.3726 15.855 49.3154 15.6859 49.2847 15.564C49.2495 15.446 49.2056 15.2652 49.188 15.1629C49.1616 15.0174 49.1528 14.8798 49.1528 14.5731C49.1528 14.2585 49.1616 14.1287 49.188 13.9911C49.2056 13.8888 49.2363 13.7473 49.2583 13.6687C49.2759 13.5939 49.3286 13.4288 49.3769 13.3069C49.4209 13.181 49.5176 12.9805 49.5835 12.8547C49.6494 12.7288 49.7505 12.5676 49.8032 12.489C49.856 12.4142 49.9526 12.2845 50.0229 12.2058C50.0933 12.1233 50.2119 11.9935 50.2866 11.9148C50.3657 11.8401 50.4976 11.7182 50.5854 11.6474C50.6777 11.5767 50.8271 11.4626 50.9238 11.3997C51.0249 11.3329 51.1919 11.2306 51.3061 11.1716C51.416 11.1087 51.583 11.0301 51.6797 10.9907C51.7764 10.9514 51.9302 10.8924 52.0269 10.861C52.1235 10.8295 52.2861 10.7784 52.396 10.7509C52.5015 10.7273 52.6948 10.688 52.8223 10.6683C52.9497 10.6486 53.1475 10.6251 53.2573 10.6211C53.3672 10.6133 53.5693 10.6093 53.6968 10.6133ZM174.955 13.1417C177.5 13.1417 178.537 14.6203 178.537 15.8471L178.576 15.8707H171.325C171.325 14.7697 172.411 13.1417 174.955 13.1417ZM228.814 14.4394C231.1 14.4394 232.95 16.1735 232.95 18.3127C232.95 20.4519 231.1 22.1821 228.814 22.1821C226.529 22.1821 224.679 20.4519 224.679 18.3127C224.679 16.1735 226.529 14.4394 228.814 14.4394ZM136.63 14.5141C138.898 14.5141 140.577 16.2286 140.577 18.3441C140.577 20.4558 138.898 22.1703 136.63 22.1703C134.367 22.1703 132.53 20.4597 132.53 18.3441C132.53 16.2286 134.367 14.5141 136.63 14.5141ZM24.5478 18.2144C24.4644 18.2144 24.3457 18.2262 24.2798 18.238C24.2139 18.2498 24.1084 18.2812 24.0425 18.3048C23.9766 18.3284 23.8579 18.3874 23.7744 18.4346C23.6953 18.4818 23.4976 18.6155 23.335 18.7295C23.1724 18.8396 22.9175 19.0284 22.7681 19.1424C22.6187 19.2604 22.3682 19.457 22.2187 19.5828C22.0649 19.7126 21.8496 19.9013 21.731 20.0075C21.6167 20.1176 21.4321 20.2906 21.3223 20.3968C21.2168 20.503 21.019 20.7075 20.8916 20.8451C20.7598 20.9866 20.5576 21.2147 20.439 21.3523C20.3203 21.4939 20.2148 21.6079 20.2104 21.6079C20.2017 21.6079 20.1138 21.5529 20.0215 21.486C19.9292 21.4192 19.7974 21.3287 19.7227 21.2816C19.6523 21.2344 19.5337 21.1715 19.459 21.14C19.3843 21.1085 19.27 21.0692 19.2041 21.0535C19.1206 21.0338 19.0195 21.026 18.8657 21.026C18.7163 21.026 18.6064 21.0338 18.5273 21.0574C18.4614 21.0731 18.3472 21.1085 18.2769 21.14C18.2065 21.1715 18.0923 21.2344 18.022 21.2816C17.9385 21.3405 17.8286 21.4467 17.6748 21.6197C17.5474 21.7613 17.3628 21.9579 17.2617 22.0562C17.1606 22.1545 16.9937 22.304 16.897 22.3826C16.8003 22.4612 16.6333 22.591 16.5278 22.6657C16.4224 22.7444 16.2422 22.8623 16.1235 22.9331C16.0093 23.0039 15.8423 23.0983 15.75 23.1455C15.6621 23.1927 15.4819 23.2792 15.3501 23.3382C15.2227 23.3971 15.0161 23.4797 14.8975 23.523C14.7744 23.5702 14.5767 23.6331 14.4536 23.6724C14.3306 23.7078 14.124 23.7589 14.001 23.7864C13.8735 23.814 13.6582 23.8572 13.5132 23.8769C13.3726 23.9005 13.1572 23.9241 13.0386 23.9359C12.9155 23.9477 12.6255 23.9555 12.3882 23.9555C12.1509 23.9555 11.8608 23.9477 11.7466 23.9359C11.6279 23.9241 11.417 23.8965 11.272 23.8769C11.127 23.8533 10.9072 23.814 10.7842 23.7864C10.6611 23.7589 10.4326 23.696 10.27 23.6488C10.1074 23.6016 9.86133 23.5151 9.7207 23.4601C9.58008 23.405 9.3955 23.3264 9.30761 23.2831C9.22412 23.2438 9.06152 23.1612 8.95605 23.1022C8.84619 23.0432 8.66601 22.941 8.55175 22.8663C8.44189 22.7955 8.26172 22.6736 8.15625 22.5949C8.04639 22.5163 7.83105 22.3354 7.67724 22.1978C7.51904 22.0562 7.30811 21.8439 7.20264 21.722C7.09717 21.6001 6.93896 21.4388 6.85986 21.3641C6.73682 21.258 6.67968 21.2186 6.53906 21.1557C6.44238 21.1164 6.31494 21.0692 6.24902 21.0535C6.16552 21.0338 6.06005 21.026 5.90624 21.026C5.75683 21.026 5.65137 21.0338 5.56787 21.0574C5.50195 21.0731 5.39209 21.1085 5.32178 21.14C5.25147 21.1715 5.08447 21.2698 4.94824 21.3602C4.8164 21.4507 4.64062 21.5726 4.56592 21.6276C4.48682 21.6827 4.35498 21.7849 4.26709 21.8478C4.18359 21.9147 3.99023 22.0759 3.84082 22.2017C3.68701 22.3315 3.45849 22.536 3.32666 22.6618C3.19482 22.7916 3.01025 22.9803 2.91357 23.0825C2.81689 23.1848 2.68066 23.3381 2.60595 23.4168C2.53564 23.4994 2.39501 23.6685 2.29394 23.7943C2.19726 23.9201 2.04785 24.1167 1.96435 24.2308C1.88525 24.3409 1.74902 24.5375 1.66552 24.6633C1.58642 24.7892 1.41504 25.0802 1.28759 25.3043C1.16455 25.5284 1.00635 25.8312 0.94043 25.9767C0.874512 26.1222 0.773438 26.3542 0.720703 26.4918C0.663574 26.6334 0.575683 26.8654 0.527343 27.0148C0.479003 27.1603 0.408688 27.3805 0.373532 27.5064C0.338375 27.6283 0.285642 27.8564 0.250485 28.0097C0.215329 28.1631 0.162597 28.4147 0.13623 28.5681C0.114257 28.7215 0.0791018 28.9574 0.0615237 29.0911C0.0483401 29.2287 0.0263672 29.5158 0.0131836 29.7321C-0.00439453 30.0348 -0.00439453 30.7505 0.0131836 32.815C0.0263672 34.2935 0.0439437 35.5872 0.0527328 35.6895C0.0659164 35.8192 0.0878906 35.9176 0.123047 36.0159C0.153809 36.0906 0.206541 36.1928 0.237302 36.2439C0.272458 36.299 0.373535 36.4052 0.46582 36.4877C0.593261 36.6018 0.667969 36.6529 0.782227 36.704C0.865723 36.7433 0.997553 36.7905 1.07226 36.8102L1.21728 36.8495L9.22852 36.8534L17.2397 36.8574L17.2485 38.0017C17.2529 38.6308 17.2661 39.3976 17.2749 39.7083C17.2881 40.1408 17.3013 40.2981 17.3232 40.3728C17.3408 40.4279 17.3892 40.538 17.4331 40.6206C17.477 40.6992 17.5518 40.8054 17.5913 40.8486C17.6353 40.8958 17.7187 40.9705 17.7803 41.0177C17.8418 41.0649 17.9604 41.1318 18.0395 41.1672C18.1186 41.2026 18.2373 41.2458 18.2944 41.2615L18.4043 41.293L33.0205 41.2969L47.6367 41.3009L47.7817 41.2733C47.8696 41.2576 47.9927 41.2183 48.0937 41.175C48.1816 41.1357 48.3047 41.0689 48.3662 41.0256C48.4277 40.9823 48.5156 40.9037 48.564 40.8486C48.6123 40.7975 48.6782 40.7071 48.7134 40.6481C48.7485 40.5852 48.7925 40.4869 48.8144 40.424C48.8408 40.3532 48.8628 40.2274 48.8716 40.1015C48.8804 39.9914 48.8935 39.2128 48.9023 38.3792L48.9155 36.8574L56.8345 36.8534L64.749 36.8495L64.8677 36.8181C64.9336 36.8023 65.0654 36.7551 65.1533 36.7158C65.2764 36.6647 65.3599 36.6136 65.4609 36.5271C65.54 36.4641 65.6367 36.3619 65.6807 36.3029C65.729 36.24 65.7861 36.1456 65.8081 36.0945C65.8345 36.0395 65.8696 35.9411 65.8872 35.8704C65.9092 35.7721 65.918 35.5754 65.9311 34.8637C65.9399 34.3761 65.9531 33.0824 65.9619 31.9853C65.9707 30.5736 65.9663 29.8972 65.9531 29.6652C65.9399 29.4843 65.918 29.2287 65.9048 29.099C65.8872 28.9692 65.8608 28.7569 65.8389 28.6232C65.8169 28.4934 65.7685 28.2417 65.729 28.0687C65.6894 27.8917 65.6279 27.6401 65.5928 27.5142C65.5576 27.3845 65.4873 27.1564 65.439 27.007C65.3862 26.8575 65.2895 26.602 65.2236 26.4407C65.1621 26.2795 65.0522 26.0318 64.9863 25.8902C64.916 25.7486 64.7798 25.4812 64.6743 25.2964C64.5732 25.1116 64.4106 24.8403 64.3184 24.6987C64.2261 24.5532 64.0503 24.2976 63.9272 24.1325C63.8042 23.9634 63.6021 23.7117 63.4834 23.5662C63.3604 23.4207 63.1846 23.2241 63.0967 23.1258C63.0044 23.0275 62.8242 22.8427 62.6924 22.7168C62.5605 22.5871 62.3452 22.3905 62.2178 22.2764C62.0859 22.1624 61.8794 21.9933 61.7607 21.8989C61.6421 21.8046 61.4575 21.6669 61.352 21.5883C61.2466 21.5136 61.0708 21.3917 60.9653 21.3209C60.8599 21.2501 60.7148 21.1675 60.6445 21.14C60.5742 21.1085 60.4643 21.0731 60.3984 21.0574C60.3193 21.0378 60.2095 21.026 60.0601 21.026C59.9062 21.026 59.8052 21.0338 59.7217 21.0535C59.6557 21.0692 59.5283 21.1164 59.436 21.1557C59.3262 21.2029 59.2251 21.2619 59.146 21.3287C59.0801 21.3838 58.957 21.5057 58.8735 21.604C58.79 21.6984 58.6362 21.8635 58.5308 21.9697C58.4297 22.0759 58.2495 22.241 58.1352 22.3354C58.021 22.4337 57.832 22.5792 57.7134 22.6657C57.5903 22.7522 57.3926 22.882 57.2651 22.9567C57.1377 23.0354 56.9224 23.1494 56.7861 23.2202C56.6499 23.287 56.417 23.3893 56.272 23.4483C56.1226 23.5072 55.8809 23.5937 55.7314 23.6409C55.582 23.6881 55.3491 23.7471 55.2129 23.7786C55.0767 23.81 54.8437 23.8533 54.6899 23.8769C54.5405 23.9005 54.334 23.9241 54.2329 23.9319C54.1318 23.9437 53.9297 23.9555 53.7847 23.9595C53.6309 23.9673 53.3804 23.9634 53.1958 23.9516C53.02 23.9437 52.7827 23.9201 52.6728 23.9083C52.563 23.8926 52.3916 23.869 52.2949 23.8533C52.1938 23.8336 52.0312 23.8022 51.9258 23.7786C51.8247 23.755 51.6621 23.7117 51.5654 23.6842C51.4687 23.6567 51.2754 23.5977 51.1348 23.5466C50.9941 23.4954 50.7568 23.4011 50.6118 23.3342C50.4668 23.2713 50.2602 23.1691 50.1548 23.1101C50.0449 23.055 49.8647 22.9489 49.7505 22.8781C49.6362 22.8073 49.4429 22.6697 49.3154 22.5753C49.188 22.4809 48.9858 22.3158 48.8716 22.2096C48.7529 22.1073 48.5771 21.9343 48.4761 21.8242C48.375 21.718 48.2432 21.5686 48.1772 21.4939C48.1113 21.4192 48.0103 21.3248 47.9487 21.2855C47.8872 21.2422 47.8037 21.1911 47.7598 21.1715C47.7202 21.1479 47.6279 21.1125 47.5576 21.0889C47.4873 21.0692 47.3642 21.0417 47.2939 21.0299C47.2192 21.022 47.0918 21.0181 47.0127 21.022C46.9292 21.026 46.8149 21.0417 46.7534 21.0574C46.6963 21.0692 46.5776 21.1125 46.4985 21.1439C46.4194 21.1793 46.248 21.2776 46.1162 21.3641C45.9888 21.4546 45.8789 21.5254 45.8789 21.5254C45.8745 21.5254 45.7603 21.3995 45.6284 21.2422C45.4922 21.0889 45.2549 20.8293 45.0967 20.6642C44.9429 20.503 44.6221 20.1963 44.3892 19.9839C44.1606 19.7755 43.8354 19.4963 43.6772 19.3665C43.5146 19.2368 43.2773 19.0559 43.1455 18.9576C43.0137 18.8632 42.7764 18.6941 42.6182 18.5879C42.4556 18.4818 42.2666 18.3677 42.1963 18.3363C42.1216 18.3048 42.0073 18.2655 41.9458 18.2498C41.8579 18.2301 41.7612 18.2222 41.5986 18.2222C41.436 18.2222 41.3306 18.2301 41.2471 18.2498C41.1811 18.2655 41.0713 18.3048 41.001 18.3363C40.9263 18.3677 40.812 18.4307 40.7417 18.4818C40.6714 18.529 40.5659 18.6273 40.5044 18.698C40.4473 18.7688 40.3198 18.9104 40.2275 19.0126C40.1309 19.1188 39.9507 19.3075 39.8188 19.4373C39.687 19.5671 39.4717 19.7598 39.3354 19.8699C39.2036 19.98 39.0059 20.1373 38.8916 20.2159C38.7817 20.2985 38.6147 20.4165 38.5181 20.4794C38.4214 20.5462 38.228 20.6642 38.0874 20.7468C37.9468 20.8294 37.7446 20.9394 37.6391 20.9945C37.5337 21.0496 37.314 21.1518 37.1514 21.2265C36.9888 21.2973 36.7427 21.3995 36.6108 21.4506C36.4746 21.5018 36.1978 21.5961 35.9912 21.6551C35.7847 21.7181 35.4814 21.7967 35.3188 21.836C35.1606 21.8714 34.9102 21.9186 34.7695 21.9422C34.6289 21.9658 34.3916 21.9972 34.2378 22.0169C34.0884 22.0326 33.8115 22.0562 33.6269 22.068C33.416 22.0798 33.1216 22.0837 32.8667 22.0759C32.6338 22.0719 32.3218 22.0562 32.1768 22.0405C32.0317 22.0287 31.8032 22.0051 31.6758 21.9854C31.5439 21.9658 31.355 21.9383 31.2627 21.9186C31.166 21.9029 31.0298 21.8753 30.9595 21.8596C30.8892 21.8439 30.7266 21.8085 30.6035 21.777C30.4761 21.7456 30.2739 21.6905 30.1509 21.6512C30.0322 21.6158 29.8081 21.5411 29.6587 21.486C29.5049 21.4349 29.25 21.3327 29.0874 21.2619C28.9292 21.1951 28.6875 21.081 28.5513 21.0102C28.4062 20.9395 28.1689 20.8058 28.0107 20.7153C27.8569 20.6209 27.6196 20.4715 27.4922 20.3811C27.3603 20.2906 27.1494 20.1373 27.022 20.039C26.8989 19.9367 26.6616 19.7362 26.499 19.5867C26.3408 19.4412 26.1299 19.2328 26.0332 19.1306C25.9365 19.0284 25.7915 18.8671 25.7124 18.7728C25.6333 18.6823 25.5278 18.5683 25.4751 18.529C25.418 18.4857 25.3301 18.4267 25.2729 18.3953C25.2202 18.3638 25.1235 18.3206 25.062 18.3009C25.0005 18.2773 24.895 18.2498 24.8291 18.238C24.7588 18.2222 24.6357 18.2144 24.5478 18.2144ZM41.7964 21.1636C41.8052 21.1636 41.9722 21.3012 42.1655 21.4703C42.3589 21.6394 42.6138 21.8714 42.728 21.9815C42.8423 22.0916 43.0356 22.2882 43.1543 22.4141C43.2729 22.5438 43.4575 22.7562 43.5718 22.8859C43.6816 23.0157 43.8618 23.2438 43.9717 23.3932C44.0859 23.5426 44.2485 23.7746 44.3408 23.9083C44.4287 24.046 44.5737 24.2701 44.6572 24.4077C44.7363 24.5454 44.8726 24.7852 44.9561 24.9465C45.0396 25.1077 45.1626 25.3515 45.2241 25.493C45.2856 25.6307 45.3779 25.843 45.4263 25.961C45.4746 26.079 45.5581 26.2952 45.6064 26.4447C45.6592 26.5941 45.7383 26.8418 45.7822 26.9991C45.8262 27.1603 45.8921 27.412 45.9272 27.5654C45.9624 27.7187 46.0151 27.9704 46.0415 28.1237C46.0679 28.2771 46.103 28.5366 46.125 28.7018C46.1426 28.8709 46.1689 29.1619 46.1777 29.3506C46.1953 29.6023 46.1953 30.432 46.1865 32.3313C46.1821 33.7784 46.1733 35.835 46.1646 36.9006L46.1558 38.8392H20.0171L20.0039 37.982C19.9951 37.5101 19.9907 35.3395 19.9863 33.1571C19.9863 30.0624 19.9907 29.1422 20.0083 28.9692C20.0215 28.8473 20.0478 28.6231 20.0698 28.4777C20.0918 28.3282 20.1313 28.0766 20.1621 27.9193C20.1929 27.762 20.25 27.5024 20.2895 27.3412C20.3291 27.1839 20.3994 26.9362 20.4434 26.7907C20.4873 26.6452 20.562 26.4211 20.6103 26.2913C20.6587 26.1615 20.7422 25.9413 20.8037 25.7958C20.8652 25.6503 20.9663 25.4262 21.0322 25.2964C21.0937 25.1667 21.1992 24.9583 21.2651 24.8364C21.3267 24.7145 21.4585 24.4903 21.5508 24.3409C21.6431 24.1875 21.7881 23.9595 21.876 23.8297C21.9639 23.7039 22.0913 23.519 22.1616 23.4247C22.2319 23.3303 22.3638 23.1612 22.456 23.0511C22.5483 22.9371 22.7065 22.7522 22.8076 22.6382C22.9043 22.5281 23.0625 22.3551 23.1548 22.2607C23.2471 22.1663 23.4316 21.9854 23.5635 21.8557C23.6997 21.7259 23.9326 21.5175 24.0864 21.3917C24.2358 21.2658 24.3589 21.1636 24.3677 21.1636C24.3721 21.1636 24.5259 21.2973 24.706 21.4546C24.8906 21.6158 25.1103 21.8046 25.1938 21.8714C25.2817 21.9383 25.4224 22.0444 25.5059 22.1073C25.5937 22.1703 25.7651 22.2961 25.8926 22.3787C26.02 22.4652 26.2397 22.6067 26.3804 22.6933C26.5254 22.7837 26.7935 22.9371 26.978 23.0354C27.1626 23.1337 27.5185 23.3067 27.769 23.4168C28.0239 23.5308 28.3579 23.6724 28.5205 23.7314C28.6831 23.7904 28.938 23.8808 29.0918 23.928C29.2456 23.9752 29.4961 24.0499 29.6455 24.0892C29.7905 24.1285 30.0322 24.1875 30.1728 24.219C30.3179 24.2544 30.5771 24.3055 30.7529 24.3369C30.9243 24.3684 31.1836 24.4077 31.3242 24.4274C31.4648 24.4431 31.6978 24.4707 31.8384 24.4825C31.979 24.4982 32.2383 24.5139 32.4097 24.5257C32.5854 24.5336 32.8843 24.5414 33.0776 24.5414C33.271 24.5414 33.5742 24.5336 33.7456 24.5257C33.917 24.5139 34.2114 24.4942 34.4048 24.4746C34.5937 24.4549 34.897 24.4195 35.0728 24.392C35.2485 24.3645 35.5254 24.3173 35.688 24.2858C35.8462 24.2544 36.1099 24.1915 36.2725 24.1521C36.4351 24.1128 36.6987 24.042 36.8613 23.9909C37.0239 23.9437 37.27 23.8651 37.4106 23.814C37.5513 23.7668 37.7842 23.6763 37.9336 23.6173C38.0786 23.5584 38.2764 23.4758 38.373 23.4325C38.4653 23.3932 38.6455 23.3067 38.7642 23.2516C38.8872 23.1927 39.1025 23.0786 39.2432 23.0039C39.3838 22.9292 39.6123 22.7955 39.7529 22.709C39.8979 22.6225 40.1177 22.4809 40.2495 22.3944C40.3813 22.304 40.5791 22.1663 40.689 22.0798C40.7988 21.9972 41.001 21.84 41.1372 21.7298C41.2734 21.6158 41.4756 21.4467 41.5854 21.3445C41.6953 21.2462 41.792 21.1636 41.7964 21.1636ZM5.74804 23.9673C5.75244 23.9673 5.84912 24.042 5.95898 24.1364C6.07324 24.2308 6.23145 24.3606 6.31055 24.4195C6.39404 24.4825 6.56103 24.6043 6.68847 24.6948C6.81591 24.7813 7.04443 24.9229 7.19385 25.0133C7.34326 25.1037 7.57617 25.2335 7.7124 25.3004C7.84423 25.3711 8.05957 25.4734 8.18701 25.5324C8.31445 25.5874 8.5166 25.6739 8.63964 25.7211C8.7583 25.7683 8.99121 25.8509 9.1538 25.9059C9.31201 25.961 9.58008 26.0396 9.74707 26.0829C9.91406 26.1261 10.1821 26.1851 10.3447 26.2205C10.5029 26.252 10.7402 26.2913 10.8633 26.311C10.9907 26.3306 11.2017 26.3542 11.3335 26.3699C11.4653 26.3817 11.7554 26.4014 11.9751 26.4132C12.2871 26.4289 12.4805 26.4289 12.7925 26.4132C13.0166 26.4014 13.311 26.3817 13.4473 26.3699C13.5835 26.3542 13.8164 26.3267 13.9614 26.3031C14.1108 26.2834 14.335 26.2402 14.4668 26.2166C14.5986 26.1891 14.7832 26.1458 14.8799 26.1222C14.9766 26.0986 15.1787 26.0436 15.3369 25.9964C15.4951 25.9531 15.7456 25.8705 15.895 25.8155C16.0444 25.7604 16.3213 25.6543 16.5015 25.5756C16.6816 25.4931 16.9321 25.3751 17.0596 25.3122C17.187 25.2453 17.4155 25.1195 17.5737 25.0251C17.7275 24.9347 17.9648 24.7813 18.1011 24.6869C18.2373 24.5926 18.3691 24.5021 18.3955 24.4825C18.4263 24.4628 18.4351 24.4589 18.4307 24.4746C18.4219 24.4903 18.3647 24.6122 18.3076 24.7538C18.2461 24.8914 18.1362 25.1588 18.0659 25.3436C17.9956 25.5284 17.8989 25.7919 17.855 25.9256C17.811 26.0632 17.7407 26.307 17.6924 26.4683C17.6484 26.6295 17.5913 26.8536 17.5649 26.9598C17.5386 27.0699 17.499 27.2586 17.4727 27.3806C17.4463 27.5064 17.4067 27.7345 17.3804 27.8917C17.354 28.0451 17.3188 28.3204 17.2969 28.5013C17.2793 28.6821 17.2529 28.9574 17.2441 29.1108C17.231 29.2838 17.2222 30.3809 17.2222 31.8948V34.3958L9.99756 34.3918L2.77295 34.3879L2.75537 32.2645C2.74658 30.7073 2.74658 30.0466 2.75977 29.791C2.77295 29.5944 2.79932 29.3192 2.82129 29.1737C2.83887 29.0242 2.87842 28.804 2.90479 28.6782C2.93115 28.5563 2.9707 28.3754 2.99268 28.2771C3.01904 28.1827 3.07617 27.9861 3.12011 27.8406C3.16406 27.6991 3.23876 27.4907 3.28271 27.3806C3.32665 27.2665 3.41015 27.0778 3.46289 26.9598C3.51562 26.8418 3.63428 26.6059 3.72656 26.4368C3.81885 26.2638 3.95068 26.0436 4.0166 25.9453C4.07812 25.843 4.1748 25.7015 4.23193 25.6228C4.28466 25.5481 4.40332 25.3908 4.4956 25.2728C4.58789 25.1549 4.74169 24.9661 4.84277 24.856C4.93945 24.7459 5.08886 24.5847 5.17236 24.5021C5.25146 24.4195 5.41406 24.2662 5.52831 24.16C5.64697 24.0538 5.74365 23.9673 5.74804 23.9673ZM60.2183 23.9712C60.227 23.9712 60.3325 24.0656 60.46 24.1836C60.5874 24.3016 60.7764 24.4864 60.8774 24.5886C60.9741 24.6948 61.1455 24.8796 61.251 25.0015C61.352 25.1234 61.5146 25.324 61.6025 25.4459C61.6904 25.5678 61.8179 25.7447 61.8838 25.843C61.9497 25.9453 62.0552 26.1183 62.1255 26.2323C62.1914 26.3424 62.2925 26.5272 62.3496 26.6413C62.4067 26.7514 62.4858 26.9205 62.5254 27.0109C62.5649 27.1014 62.6352 27.2626 62.6792 27.3688C62.7231 27.4789 62.7934 27.6833 62.8418 27.8288C62.8857 27.9743 62.9473 28.1749 62.9692 28.2732C62.9956 28.3715 63.0351 28.5563 63.0615 28.6782C63.0879 28.804 63.1274 29.0242 63.145 29.1697C63.167 29.3152 63.189 29.563 63.2021 29.7242C63.2153 29.9208 63.2197 30.6601 63.2109 32.1426C63.2021 33.3144 63.1934 34.3014 63.189 34.3328L63.1802 34.3958H48.9287L48.9331 31.8162C48.9375 29.854 48.9331 29.1776 48.9155 28.9849C48.9023 28.8434 48.8804 28.6153 48.8628 28.4777C48.8496 28.3361 48.81 28.0687 48.7793 27.8799C48.7485 27.6912 48.6958 27.4041 48.6606 27.239C48.6255 27.0778 48.5684 26.834 48.5332 26.6963C48.498 26.5626 48.4277 26.3188 48.3794 26.1576C48.331 25.9924 48.2388 25.7211 48.1772 25.5481C48.1157 25.379 48.0103 25.1156 47.9487 24.9622C47.8828 24.8088 47.8345 24.683 47.8345 24.6791C47.8389 24.6751 47.9136 24.7223 48.0059 24.7813C48.0937 24.8403 48.2827 24.9583 48.4233 25.0408C48.5684 25.1234 48.7925 25.2492 48.9287 25.32C49.0649 25.3908 49.3022 25.5009 49.4516 25.5678C49.6011 25.6307 49.8384 25.729 49.9746 25.7801C50.1108 25.8312 50.3921 25.9217 50.5986 25.9846C50.8052 26.0475 51.104 26.1261 51.2666 26.1615C51.4248 26.1969 51.6665 26.248 51.7983 26.2677C51.9258 26.2913 52.1543 26.3228 52.2993 26.3424C52.4487 26.3621 52.6772 26.3857 52.8135 26.3975C52.9497 26.4053 53.2881 26.4171 53.5649 26.4171C53.8418 26.4171 54.189 26.4093 54.334 26.3975C54.479 26.3857 54.7207 26.3621 54.8657 26.3424C55.0151 26.3228 55.2568 26.2874 55.4062 26.2598C55.5601 26.2363 55.8061 26.1851 55.9599 26.1497C56.1138 26.1143 56.3599 26.0475 56.5093 26.0042C56.6587 25.9571 56.9004 25.8823 57.0454 25.8273C57.1948 25.7762 57.4629 25.67 57.6431 25.5914C57.8232 25.5127 58.0693 25.3987 58.1836 25.3397C58.3022 25.2807 58.5 25.1745 58.6274 25.1038C58.7505 25.033 58.9482 24.9111 59.0625 24.8364C59.1811 24.7616 59.3701 24.6319 59.4844 24.5493C59.5986 24.4667 59.8096 24.3016 59.9502 24.1836C60.0908 24.0656 60.2095 23.9712 60.2183 23.9712ZM100.789 35.0721V42.1502H102.041V35.0721H100.789ZM176.186 35.0721V42.1502H177.434V35.0721H176.186ZM231.104 35.0721V42.1502H232.352V35.0721H231.104ZM267.768 35.0721V42.1502H269.02V35.0721H267.768ZM276.091 35.0721V42.1502H277.225L277.286 41.6115C277.651 42.0323 278.156 42.2407 278.811 42.2407C279.488 42.2407 280.015 42.0126 280.402 41.5565C280.789 41.0964 280.982 40.4829 280.982 39.7083V39.6414C280.982 38.8314 280.789 38.2022 280.402 37.75C280.015 37.2978 279.479 37.0736 278.798 37.0736C278.187 37.0736 277.704 37.2624 277.343 37.6438V35.0721H276.091ZM297.391 35.0721V42.1502H298.644V35.0721H297.391ZM115.51 35.2687C115.282 35.2687 115.106 35.3277 114.983 35.4417C114.864 35.5558 114.803 35.6973 114.803 35.8704C114.803 36.0395 114.864 36.181 114.983 36.295C115.106 36.4052 115.282 36.4602 115.51 36.4602C115.734 36.4602 115.91 36.4052 116.033 36.295C116.156 36.181 116.218 36.0395 116.218 35.8704C116.218 35.6973 116.156 35.5558 116.033 35.4417C115.91 35.3277 115.734 35.2687 115.51 35.2687ZM143.833 35.2687C143.604 35.2687 143.433 35.3277 143.306 35.4417C143.187 35.5558 143.125 35.6973 143.125 35.8704C143.125 36.0395 143.187 36.181 143.306 36.295C143.433 36.4052 143.604 36.4602 143.833 36.4602C144.062 36.4602 144.233 36.4052 144.36 36.295C144.483 36.181 144.545 36.0395 144.545 35.8704C144.545 35.6973 144.483 35.5558 144.36 35.4417C144.233 35.3277 144.062 35.2687 143.833 35.2687ZM90.958 35.3474C90.1714 35.3474 89.5342 35.5243 89.0376 35.8743C88.5498 36.2243 88.3037 36.6686 88.3037 37.2113C88.3037 37.8287 88.6421 38.328 89.3276 38.7134C89.6836 38.914 90.1626 39.0948 90.769 39.2561C91.3711 39.4173 91.7886 39.5785 92.0215 39.7397C92.2544 39.901 92.3686 40.129 92.3686 40.424C92.3686 40.6913 92.2544 40.9116 92.0259 41.0767C91.7974 41.2379 91.459 41.3205 91.0063 41.3205C90.479 41.3205 90.0791 41.2144 89.7934 41.0059C89.5122 40.7975 89.3716 40.5026 89.3716 40.1212H88.0708C88.0708 40.5419 88.1938 40.9116 88.4443 41.2301C88.6992 41.5447 89.0552 41.7924 89.5078 41.9733C89.9648 42.1542 90.4614 42.2407 91.0063 42.2407C91.8281 42.2407 92.4741 42.0795 92.9531 41.7491C93.4321 41.4188 93.6738 40.9705 93.6738 40.4122C93.6738 40.07 93.5903 39.7673 93.4277 39.5156C93.2607 39.2561 93.0015 39.028 92.6499 38.8314C92.2939 38.6308 91.8281 38.4578 91.2436 38.3005C90.6592 38.1472 90.2417 37.9859 89.9868 37.8247C89.7319 37.6556 89.6045 37.4511 89.6045 37.2073C89.6045 36.9124 89.7231 36.6883 89.956 36.5231C90.1934 36.3619 90.5229 36.2793 90.9492 36.2793C91.4062 36.2793 91.7578 36.3776 91.9995 36.5782C92.2456 36.7748 92.3686 37.05 92.3686 37.4H93.6694C93.6694 37.0107 93.5508 36.6608 93.3179 36.3422C93.085 36.0237 92.7642 35.7799 92.3555 35.6069C91.9468 35.4339 91.4809 35.3474 90.958 35.3474ZM152.011 35.9529V37.1641H151.093V37.9938H152.011V40.8172C152.011 41.7688 152.49 42.2407 153.453 42.2407C153.716 42.2407 153.993 42.2053 154.279 42.1345V41.2694C154.129 41.3009 153.984 41.3166 153.839 41.3166C153.624 41.3166 153.47 41.2733 153.387 41.1908C153.303 41.1042 153.264 40.9666 153.264 40.7779V37.9938H154.248V37.1641H153.264V35.9529H152.011ZM210.265 35.9529V37.1641H209.351V37.9938H210.265V40.8172C210.265 41.7688 210.749 42.2407 211.707 42.2407C211.97 42.2407 212.247 42.2053 212.533 42.1345V41.2694C212.383 41.3009 212.238 41.3166 212.093 41.3166C211.878 41.3166 211.729 41.2733 211.641 41.1908C211.557 41.1042 211.518 40.9666 211.518 40.7779V37.9938H212.502V37.1641H211.518V35.9529H210.265ZM97.0444 37.0736C96.5391 37.0736 96.0908 37.1798 95.6953 37.3882C95.3042 37.6006 95.001 37.8994 94.7856 38.2927C94.5703 38.682 94.4604 39.1224 94.4604 39.61V39.665C94.4604 40.4476 94.6977 41.0728 95.168 41.5407C95.6426 42.0087 96.271 42.2407 97.0576 42.2407C97.5718 42.2407 98.0244 42.1345 98.4155 41.9261C98.811 41.7138 99.1143 41.411 99.3208 41.0256C99.5361 40.6402 99.6416 40.1998 99.6416 39.7083L99.6372 39.4448C99.5976 38.7291 99.3472 38.155 98.8769 37.7225C98.4067 37.2899 97.8003 37.0736 97.0444 37.0736ZM111.582 37.0736C110.795 37.0736 110.18 37.3017 109.727 37.7579C109.274 38.214 109.046 38.8196 109.046 39.5785V39.6926C109.046 40.4908 109.274 41.1121 109.731 41.5643C110.188 42.0165 110.804 42.2407 111.586 42.2407C111.986 42.2407 112.359 42.162 112.707 42.0087C113.054 41.8514 113.331 41.639 113.533 41.3716C113.735 41.1003 113.84 40.8093 113.854 40.4987H112.676C112.663 40.7385 112.553 40.943 112.346 41.1042C112.14 41.2655 111.88 41.348 111.568 41.348C111.155 41.348 110.843 41.2143 110.624 40.9509C110.404 40.6835 110.298 40.2824 110.298 39.7397V39.5589C110.303 39.0241 110.413 38.6269 110.632 38.3674C110.852 38.1039 111.164 37.9702 111.568 37.9702C111.885 37.9702 112.144 38.0646 112.346 38.2455C112.553 38.4303 112.663 38.6662 112.676 38.9533H113.854C113.836 38.391 113.616 37.9348 113.194 37.5927C112.781 37.2467 112.241 37.0736 111.582 37.0736ZM119.852 37.0736C119.342 37.0736 118.894 37.1798 118.503 37.3882C118.107 37.6006 117.804 37.8994 117.589 38.2927C117.374 38.682 117.264 39.1224 117.264 39.61V39.665C117.264 40.4476 117.501 41.0728 117.971 41.5407C118.446 42.0087 119.074 42.2407 119.861 42.2407C120.375 42.2407 120.828 42.1345 121.219 41.9261C121.614 41.7138 121.917 41.411 122.128 41.0256C122.339 40.6402 122.445 40.1998 122.445 39.7083L122.44 39.4448C122.401 38.7291 122.15 38.155 121.68 37.7225C121.21 37.2899 120.604 37.0736 119.852 37.0736ZM126.334 37.0736C125.666 37.0736 125.125 37.2939 124.712 37.7382L124.677 37.1641H123.495V42.1502H124.748V38.6033C124.994 38.1943 125.372 37.9899 125.877 37.9899C126.224 37.9899 126.47 38.0646 126.624 38.2179C126.778 38.3713 126.853 38.6033 126.853 38.9179V42.1502H128.105V38.855C128.083 37.6674 127.494 37.0736 126.334 37.0736ZM131.695 37.0736C131.216 37.0736 130.786 37.1798 130.399 37.4C130.008 37.6163 129.709 37.923 129.489 38.3163C129.278 38.7056 129.173 39.1499 129.173 39.6493V39.7869C129.173 40.5301 129.419 41.1239 129.907 41.5722C130.403 42.0205 131.045 42.2407 131.84 42.2407C132.302 42.2407 132.719 42.162 133.088 41.9969C133.466 41.8317 133.765 41.5997 133.985 41.3009L133.312 40.7267C132.952 41.1396 132.486 41.348 131.911 41.348C131.502 41.348 131.164 41.2301 130.891 40.9902C130.623 40.7503 130.469 40.424 130.434 40.0111H134.073V39.5589C134.073 38.7685 133.866 38.155 133.449 37.7225C133.04 37.2899 132.456 37.0736 131.695 37.0736ZM137.131 37.0736C136.507 37.0736 135.993 37.2152 135.589 37.5062C135.185 37.7933 134.982 38.155 134.982 38.5836C134.982 39.0948 135.294 39.4881 135.918 39.7594C136.204 39.8813 136.56 39.9835 136.982 40.0622C137.408 40.1408 137.711 40.2352 137.896 40.3374C138.081 40.4436 138.173 40.597 138.173 40.7936C138.173 40.9784 138.089 41.1239 137.914 41.2379C137.742 41.348 137.492 41.4031 137.162 41.4031C136.824 41.4031 136.551 41.3323 136.345 41.1908C136.138 41.0453 136.028 40.8447 136.011 40.5773H134.793C134.793 40.8762 134.895 41.1554 135.092 41.411C135.294 41.6705 135.571 41.875 135.927 42.0205C136.283 42.1699 136.692 42.2407 137.149 42.2407C137.821 42.2407 138.366 42.103 138.779 41.8278C139.197 41.5486 139.403 41.1829 139.403 40.7346C139.403 40.4672 139.337 40.2391 139.197 40.0543C139.065 39.8656 138.858 39.7043 138.573 39.5746C138.296 39.4409 137.914 39.3229 137.421 39.2285C136.929 39.1302 136.604 39.0319 136.441 38.9375C136.283 38.8432 136.2 38.7095 136.2 38.5365C136.2 38.3477 136.288 38.1944 136.459 38.0803C136.635 37.9663 136.859 37.9112 137.131 37.9112C137.43 37.9112 137.663 37.982 137.843 38.1275C138.023 38.2691 138.111 38.446 138.111 38.6623H139.364C139.364 38.1904 139.157 37.809 138.744 37.5141C138.335 37.2191 137.799 37.0736 137.131 37.0736ZM148.645 37.0736C147.973 37.0736 147.432 37.2939 147.019 37.7382L146.984 37.1641H145.806V42.1502H147.059V38.6033C147.305 38.1943 147.678 37.9899 148.184 37.9899C148.531 37.9899 148.781 38.0646 148.931 38.2179C149.084 38.3713 149.164 38.6033 149.164 38.9179V42.1502H150.416V38.855C150.394 37.6674 149.805 37.0736 148.645 37.0736ZM157.504 37.0736C157.03 37.0736 156.595 37.1798 156.208 37.4C155.821 37.6163 155.518 37.923 155.303 38.3163C155.087 38.7056 154.982 39.1499 154.982 39.6493V39.7869C154.982 40.5301 155.228 41.1239 155.72 41.5722C156.212 42.0205 156.858 42.2407 157.649 42.2407C158.115 42.2407 158.533 42.162 158.902 41.9969C159.275 41.8317 159.574 41.5997 159.798 41.3009L159.122 40.7267C158.761 41.1396 158.295 41.348 157.724 41.348C157.315 41.348 156.973 41.2301 156.7 40.9902C156.437 40.7503 156.283 40.424 156.243 40.0111H159.886V39.5589C159.886 38.7685 159.675 38.155 159.262 37.7225C158.849 37.2899 158.265 37.0736 157.504 37.0736ZM162.87 37.0736C162.198 37.0736 161.657 37.3056 161.249 37.7697C160.844 38.2297 160.642 38.8471 160.642 39.6218C160.642 40.4397 160.849 41.0807 161.262 41.5447C161.675 42.0087 162.211 42.2407 162.861 42.2407C163.463 42.2407 163.942 42.0637 164.303 41.702V42.0401C164.303 42.4294 164.184 42.7244 163.942 42.9249C163.701 43.1254 163.375 43.2277 162.958 43.2277C162.396 43.2277 161.921 43.0232 161.539 42.6142L160.945 43.2867C161.147 43.5344 161.442 43.731 161.833 43.8844C162.224 44.0377 162.624 44.1124 163.033 44.1124C163.806 44.1124 164.417 43.9237 164.87 43.5462C165.327 43.1687 165.555 42.6536 165.555 41.9969V37.1641H164.426L164.369 37.6674C164.008 37.2703 163.507 37.0736 162.87 37.0736ZM169.312 37.0736C168.781 37.0736 168.359 37.2899 168.056 37.7225L168.025 37.1641H166.834V42.1502H168.082V38.7409C168.284 38.3477 168.671 38.1511 169.242 38.1511C169.418 38.1511 169.589 38.1629 169.752 38.1865L169.756 37.1366C169.642 37.0933 169.493 37.0736 169.312 37.0736ZM172.635 37.0736C172.208 37.0736 171.817 37.1405 171.466 37.2742C171.119 37.4079 170.846 37.5966 170.644 37.8365C170.442 38.0725 170.341 38.328 170.341 38.6033H171.589C171.589 38.4067 171.681 38.2455 171.861 38.1196C172.046 37.9899 172.279 37.923 172.564 37.923C172.894 37.923 173.14 38.0017 173.298 38.159C173.461 38.3123 173.544 38.5207 173.544 38.7763V39.1027H172.775C171.954 39.1027 171.321 39.2482 170.881 39.5313C170.442 39.8145 170.222 40.2234 170.222 40.7543C170.222 41.175 170.398 41.5289 170.75 41.8121C171.105 42.0991 171.563 42.2407 172.121 42.2407C172.696 42.2407 173.184 42.0559 173.584 41.6862C173.624 41.8986 173.672 42.0559 173.729 42.1502H175.003V42.0716C174.863 41.8042 174.792 41.4464 174.792 40.9981V38.7488C174.784 38.2179 174.586 37.8051 174.195 37.5141C173.808 37.2191 173.29 37.0736 172.635 37.0736ZM181.112 37.0736C180.637 37.0736 180.202 37.1798 179.815 37.4C179.429 37.6163 179.125 37.923 178.91 38.3163C178.695 38.7056 178.589 39.1499 178.589 39.6493V39.7869C178.589 40.5301 178.835 41.1239 179.328 41.5722C179.82 42.0205 180.466 42.2407 181.257 42.2407C181.718 42.2407 182.136 42.162 182.509 41.9969C182.883 41.8317 183.182 41.5997 183.406 41.3009L182.729 40.7267C182.369 41.1396 181.903 41.348 181.327 41.348C180.918 41.348 180.58 41.2301 180.308 40.9902C180.04 40.7503 179.89 40.424 179.851 40.0111H183.494V39.5589C183.494 38.7685 183.283 38.155 182.87 37.7225C182.457 37.2899 181.872 37.0736 181.112 37.0736ZM186.552 37.0736C185.924 37.0736 185.41 37.2152 185.005 37.5062C184.601 37.7933 184.399 38.155 184.399 38.5836C184.399 39.0948 184.711 39.4881 185.335 39.7594C185.621 39.8813 185.977 39.9835 186.403 40.0622C186.829 40.1408 187.132 40.2352 187.312 40.3374C187.497 40.4436 187.589 40.597 187.589 40.7936C187.589 40.9784 187.506 41.1239 187.334 41.2379C187.163 41.348 186.913 41.4031 186.583 41.4031C186.24 41.4031 185.968 41.3323 185.761 41.1908C185.559 41.0453 185.445 40.8447 185.427 40.5773H184.214C184.214 40.8762 184.311 41.1554 184.513 41.411C184.711 41.6705 184.988 41.875 185.344 42.0205C185.704 42.1699 186.108 42.2407 186.565 42.2407C187.238 42.2407 187.783 42.103 188.2 41.8278C188.613 41.5486 188.82 41.1829 188.82 40.7346C188.82 40.4672 188.754 40.2391 188.618 40.0543C188.481 39.8656 188.275 39.7043 187.994 39.5746C187.717 39.4409 187.33 39.3229 186.838 39.2285C186.35 39.1302 186.021 39.0319 185.862 38.9375C185.7 38.8432 185.621 38.7095 185.621 38.5365C185.621 38.3477 185.704 38.1944 185.875 38.0803C186.051 37.9663 186.275 37.9112 186.552 37.9112C186.847 37.9112 187.084 37.982 187.26 38.1275C187.44 38.2691 187.528 38.446 187.528 38.6623H188.78C188.78 38.1904 188.574 37.809 188.161 37.5141C187.756 37.2191 187.216 37.0736 186.552 37.0736ZM194.84 37.0736C194.058 37.0736 193.443 37.3017 192.99 37.7579C192.533 38.214 192.309 38.8196 192.309 39.5785V39.6926C192.309 40.4908 192.538 41.1121 192.995 41.5643C193.452 42.0165 194.067 42.2407 194.849 42.2407C195.249 42.2407 195.623 42.162 195.97 42.0087C196.317 41.8514 196.589 41.639 196.796 41.3716C196.998 41.1003 197.104 40.8093 197.117 40.4987H195.939C195.926 40.7385 195.816 40.943 195.609 41.1042C195.403 41.2655 195.144 41.348 194.832 41.348C194.418 41.348 194.102 41.2143 193.882 40.9509C193.667 40.6835 193.562 40.2824 193.562 39.7397V39.5589C193.562 39.0241 193.676 38.6269 193.895 38.3674C194.115 38.1039 194.427 37.9702 194.832 37.9702C195.148 37.9702 195.407 38.0646 195.609 38.2455C195.816 38.4303 195.926 38.6662 195.939 38.9533H197.117C197.099 38.391 196.879 37.9348 196.458 37.5927C196.044 37.2467 195.504 37.0736 194.84 37.0736ZM200.413 37.0736C199.907 37.0736 199.455 37.1798 199.063 37.3882C198.672 37.6006 198.369 37.8994 198.154 38.2927C197.938 38.682 197.829 39.1224 197.829 39.61V39.665C197.829 40.4476 198.066 41.0728 198.536 41.5407C199.006 42.0087 199.639 42.2407 200.426 42.2407C200.94 42.2407 201.393 42.1345 201.784 41.9261C202.179 41.7138 202.482 41.411 202.689 41.0256C202.904 40.6402 203.01 40.1998 203.01 39.7083L203.005 39.4448C202.966 38.7291 202.711 38.155 202.241 37.7225C201.775 37.2899 201.164 37.0736 200.413 37.0736ZM206.899 37.0736C206.227 37.0736 205.686 37.2939 205.277 37.7382L205.238 37.1641H204.06V42.1502H205.312V38.6033C205.559 38.1943 205.936 37.9899 206.437 37.9899C206.785 37.9899 207.035 38.0646 207.185 38.2179C207.343 38.3713 207.417 38.6033 207.417 38.9179V42.1502H208.67V38.855C208.648 37.6674 208.059 37.0736 206.899 37.0736ZM215.93 37.0736C215.394 37.0736 214.976 37.2899 214.673 37.7225L214.642 37.1641H213.447V42.1502H214.699V38.7409C214.897 38.3477 215.284 38.1511 215.859 38.1511C216.035 38.1511 216.202 38.1629 216.369 38.1865L216.374 37.1366C216.255 37.0933 216.11 37.0736 215.93 37.0736ZM219.252 37.0736C218.821 37.0736 218.435 37.1405 218.083 37.2742C217.736 37.4079 217.463 37.5966 217.261 37.8365C217.055 38.0725 216.954 38.328 216.954 38.6033H218.206C218.206 38.4067 218.298 38.2455 218.479 38.1196C218.663 37.9899 218.896 37.923 219.182 37.923C219.511 37.923 219.757 38.0017 219.916 38.159C220.078 38.3123 220.157 38.5207 220.157 38.7763V39.1027H219.393C218.571 39.1027 217.938 39.2482 217.494 39.5313C217.055 39.8145 216.835 40.2234 216.835 40.7543C216.835 41.175 217.015 41.5289 217.367 41.8121C217.723 42.0991 218.18 42.2407 218.738 42.2407C219.313 42.2407 219.801 42.0559 220.201 41.6862C220.241 41.8986 220.289 42.0559 220.346 42.1502H221.621V42.0716C221.48 41.8042 221.41 41.4464 221.41 40.9981V38.7488C221.401 38.2179 221.199 37.8051 220.812 37.5141C220.425 37.2191 219.907 37.0736 219.252 37.0736ZM227.667 37.0736C227.188 37.0736 226.758 37.1798 226.371 37.4C225.98 37.6163 225.681 37.923 225.461 38.3163C225.25 38.7056 225.145 39.1499 225.145 39.6493V39.7869C225.145 40.5301 225.391 41.1239 225.879 41.5722C226.375 42.0205 227.017 42.2407 227.812 42.2407C228.274 42.2407 228.691 42.162 229.065 41.9969C229.438 41.8317 229.737 41.5997 229.957 41.3009L229.285 40.7267C228.924 41.1396 228.458 41.348 227.883 41.348C227.474 41.348 227.136 41.2301 226.863 40.9902C226.595 40.7503 226.441 40.424 226.406 40.0111H230.045V39.5589C230.045 38.7685 229.838 38.155 229.425 37.7225C229.012 37.2899 228.428 37.0736 227.667 37.0736ZM238.597 37.0736C238.166 37.0736 237.775 37.1405 237.428 37.2742C237.081 37.4079 236.804 37.5966 236.602 37.8365C236.399 38.0725 236.298 38.328 236.298 38.6033H237.551C237.551 38.4067 237.639 38.2455 237.823 38.1196C238.003 37.9899 238.236 37.923 238.522 37.923C238.852 37.923 239.098 38.0017 239.26 38.159C239.423 38.3123 239.502 38.5207 239.502 38.7763V39.1027H238.733C237.916 39.1027 237.283 39.2482 236.839 39.5313C236.399 39.8145 236.18 40.2234 236.18 40.7543C236.18 41.175 236.355 41.5289 236.711 41.8121C237.063 42.0991 237.52 42.2407 238.078 42.2407C238.658 42.2407 239.146 42.0559 239.541 41.6862C239.585 41.8986 239.634 42.0559 239.686 42.1502H240.965V42.0716C240.825 41.8042 240.754 41.4464 240.754 40.9981V38.7488C240.741 38.2179 240.543 37.8051 240.157 37.5141C239.766 37.2191 239.247 37.0736 238.597 37.0736ZM244.362 37.0736C243.58 37.0736 242.96 37.3017 242.508 37.7579C242.055 38.214 241.831 38.8196 241.831 39.5785V39.6926C241.831 40.4908 242.06 41.1121 242.512 41.5643C242.969 42.0165 243.589 42.2407 244.367 42.2407C244.771 42.2407 245.145 42.162 245.492 42.0087C245.839 41.8514 246.111 41.639 246.313 41.3716C246.516 41.1003 246.625 40.8093 246.639 40.4987H245.461C245.448 40.7385 245.338 40.943 245.131 41.1042C244.925 41.2655 244.665 41.348 244.353 41.348C243.94 41.348 243.624 41.2143 243.404 40.9509C243.189 40.6835 243.079 40.2824 243.079 39.7397V39.5589C243.083 39.0241 243.198 38.6269 243.417 38.3674C243.637 38.1039 243.949 37.9702 244.353 37.9702C244.67 37.9702 244.929 38.0646 245.131 38.2455C245.338 38.4303 245.448 38.6662 245.461 38.9533H246.639C246.617 38.391 246.397 37.9348 245.979 37.5927C245.566 37.2467 245.026 37.0736 244.362 37.0736ZM249.935 37.0736C249.425 37.0736 248.977 37.1798 248.585 37.3882C248.194 37.6006 247.891 37.8994 247.676 38.2927C247.456 38.682 247.351 39.1224 247.351 39.61V39.665C247.351 40.4476 247.583 41.0728 248.054 41.5407C248.528 42.0087 249.161 42.2407 249.943 42.2407C250.462 42.2407 250.915 42.1345 251.306 41.9261C251.701 41.7138 252 41.411 252.211 41.0256C252.426 40.6402 252.532 40.1998 252.532 39.7083L252.527 39.4448C252.488 38.7291 252.233 38.155 251.763 37.7225C251.297 37.2899 250.686 37.0736 249.935 37.0736ZM255.683 37.0736C255.059 37.0736 254.544 37.2152 254.136 37.5062C253.731 37.7933 253.529 38.155 253.529 38.5836C253.529 39.0948 253.841 39.4881 254.465 39.7594C254.751 39.8813 255.107 39.9835 255.533 40.0622C255.959 40.1408 256.263 40.2352 256.443 40.3374C256.632 40.4436 256.724 40.597 256.724 40.7936C256.724 40.9784 256.636 41.1239 256.465 41.2379C256.293 41.348 256.043 41.4031 255.713 41.4031C255.375 41.4031 255.103 41.3323 254.896 41.1908C254.689 41.0453 254.575 40.8447 254.558 40.5773H253.345C253.345 40.8762 253.446 41.1554 253.644 41.411C253.841 41.6705 254.118 41.875 254.478 42.0205C254.834 42.1699 255.243 42.2407 255.696 42.2407C256.373 42.2407 256.913 42.103 257.331 41.8278C257.744 41.5486 257.955 41.1829 257.955 40.7346C257.955 40.4672 257.884 40.2391 257.748 40.0543C257.612 39.8656 257.405 39.7043 257.124 39.5746C256.847 39.4409 256.46 39.3229 255.973 39.2285C255.48 39.1302 255.155 39.0319 254.993 38.9375C254.83 38.8432 254.751 38.7095 254.751 38.5365C254.751 38.3477 254.834 38.1944 255.006 38.0803C255.182 37.9663 255.406 37.9112 255.683 37.9112C255.977 37.9112 256.214 37.982 256.395 38.1275C256.57 38.2691 256.663 38.446 256.663 38.6623H257.911C257.911 38.1904 257.704 37.809 257.295 37.5141C256.887 37.2191 256.346 37.0736 255.683 37.0736ZM261.387 37.0736C260.881 37.0736 260.429 37.1798 260.038 37.3882C259.646 37.6006 259.343 37.8994 259.128 38.2927C258.913 38.682 258.803 39.1224 258.803 39.61V39.665C258.803 40.4476 259.04 41.0728 259.51 41.5407C259.98 42.0087 260.613 42.2407 261.4 42.2407C261.914 42.2407 262.367 42.1345 262.758 41.9261C263.153 41.7138 263.457 41.411 263.663 41.0256C263.878 40.6402 263.984 40.1998 263.984 39.7083L263.979 39.4448C263.94 38.7291 263.685 38.155 263.215 37.7225C262.749 37.2899 262.138 37.0736 261.387 37.0736ZM272.624 37.0736C272.197 37.0736 271.806 37.1405 271.455 37.2742C271.107 37.4079 270.835 37.5966 270.633 37.8365C270.431 38.0725 270.33 38.328 270.33 38.6033H271.582C271.582 38.4067 271.67 38.2455 271.854 38.1196C272.035 37.9899 272.268 37.923 272.553 37.923C272.883 37.923 273.129 38.0017 273.291 38.159C273.45 38.3123 273.533 38.5207 273.533 38.7763V39.1027H272.764C271.942 39.1027 271.314 39.2482 270.87 39.5313C270.431 39.8145 270.211 40.2234 270.211 40.7543C270.211 41.175 270.387 41.5289 270.738 41.8121C271.094 42.0991 271.551 42.2407 272.109 42.2407C272.685 42.2407 273.173 42.0559 273.573 41.6862C273.612 41.8986 273.661 42.0559 273.718 42.1502H274.992V42.0716C274.852 41.8042 274.781 41.4464 274.781 40.9981V38.7488C274.772 38.2179 274.575 37.8051 274.184 37.5141C273.797 37.2191 273.278 37.0736 272.624 37.0736ZM284.379 37.0736C283.869 37.0736 283.421 37.1798 283.03 37.3882C282.639 37.6006 282.331 37.8994 282.116 38.2927C281.9 38.682 281.79 39.1224 281.79 39.61V39.665C281.79 40.4476 282.028 41.0728 282.498 41.5407C282.973 42.0087 283.601 42.2407 284.388 42.2407C284.902 42.2407 285.354 42.1345 285.746 41.9261C286.141 41.7138 286.444 41.411 286.655 41.0256C286.866 40.6402 286.972 40.1998 286.972 39.7083L286.967 39.4448C286.928 38.7291 286.677 38.155 286.207 37.7225C285.737 37.2899 285.13 37.0736 284.379 37.0736ZM290.522 37.0736C289.986 37.0736 289.564 37.2899 289.266 37.7225L289.235 37.1641H288.04V42.1502H289.292V38.7409C289.49 38.3477 289.876 38.1511 290.448 38.1511C290.624 38.1511 290.795 38.1629 290.957 38.1865L290.962 37.1366C290.848 37.0933 290.698 37.0736 290.522 37.0736ZM293.845 37.0736C293.414 37.0736 293.023 37.1405 292.676 37.2742C292.329 37.4079 292.052 37.5966 291.85 37.8365C291.647 38.0725 291.546 38.328 291.546 38.6033H292.799C292.799 38.4067 292.887 38.2455 293.071 38.1196C293.251 37.9899 293.484 37.923 293.77 37.923C294.1 37.923 294.346 38.0017 294.508 38.159C294.666 38.3123 294.75 38.5207 294.75 38.7763V39.1027H293.981C293.159 39.1027 292.531 39.2482 292.087 39.5313C291.647 39.8145 291.428 40.2234 291.428 40.7543C291.428 41.175 291.603 41.5289 291.959 41.8121C292.311 42.0991 292.768 42.2407 293.326 42.2407C293.906 42.2407 294.394 42.0559 294.79 41.6862C294.833 41.8986 294.877 42.0559 294.935 42.1502H296.213V42.0716C296.073 41.8042 296.002 41.4464 296.002 40.9981V38.7488C295.989 38.2179 295.791 37.8051 295.405 37.5141C295.014 37.2191 294.495 37.0736 293.845 37.0736ZM103.381 37.1641V40.3925C103.381 40.9941 103.535 41.4503 103.843 41.7688C104.155 42.0834 104.616 42.2407 105.218 42.2407C105.895 42.2407 106.418 42.048 106.787 41.6626L106.818 42.1502H107.996V37.1641H106.743V40.7464C106.532 41.1357 106.119 41.3284 105.513 41.3284C104.924 41.3284 104.634 41.0138 104.634 40.3807V37.1641H103.381ZM114.882 37.1641V42.1502H116.13V37.1641H114.882ZM143.205 37.1641V42.1502H144.457V37.1641H143.205ZM97.0444 37.9702C97.4619 37.9702 97.7915 38.1196 98.0288 38.4146C98.2749 38.7095 98.3979 39.1066 98.3979 39.61C98.3979 40.1802 98.2793 40.6127 98.042 40.9076C97.8091 41.2026 97.4795 41.348 97.0576 41.348C96.6357 41.348 96.3061 41.2026 96.0688 40.9155C95.8315 40.6245 95.7129 40.2195 95.7129 39.7083C95.7129 39.1302 95.8315 38.6977 96.0732 38.4067C96.3149 38.1157 96.6401 37.9702 97.0444 37.9702ZM119.852 37.9702C120.265 37.9702 120.595 38.1196 120.832 38.4146C121.078 38.7095 121.201 39.1066 121.201 39.61C121.201 40.1802 121.083 40.6127 120.845 40.9076C120.612 41.2026 120.283 41.348 119.861 41.348C119.439 41.348 119.109 41.2026 118.872 40.9155C118.635 40.6245 118.516 40.2195 118.516 39.7083C118.516 39.1302 118.635 38.6977 118.876 38.4067C119.118 38.1157 119.443 37.9702 119.852 37.9702ZM131.691 37.9702C132.038 37.9702 132.306 38.0685 132.504 38.2612C132.697 38.4499 132.812 38.7331 132.838 39.1106V39.1931H130.452C130.513 38.8078 130.645 38.5089 130.856 38.2927C131.067 38.0764 131.348 37.9702 131.691 37.9702ZM157.5 37.9702C157.847 37.9702 158.12 38.0685 158.313 38.2612C158.511 38.4499 158.621 38.7331 158.647 39.1106V39.1931H156.265C156.322 38.8078 156.458 38.5089 156.665 38.2927C156.88 38.0764 157.157 37.9702 157.5 37.9702ZM181.107 37.9702C181.455 37.9702 181.727 38.0685 181.92 38.2612C182.118 38.4499 182.228 38.7331 182.254 39.1106V39.1931H179.873C179.93 38.8078 180.066 38.5089 180.272 38.2927C180.488 38.0764 180.765 37.9702 181.107 37.9702ZM200.413 37.9702C200.83 37.9702 201.16 38.1196 201.397 38.4146C201.643 38.7095 201.762 39.1066 201.762 39.61C201.762 40.1802 201.643 40.6127 201.41 40.9076C201.173 41.2026 200.848 41.348 200.426 41.348C200.004 41.348 199.674 41.2026 199.437 40.9155C199.2 40.6245 199.081 40.2195 199.081 39.7083C199.081 39.1302 199.2 38.6977 199.441 38.4067C199.683 38.1157 200.004 37.9702 200.413 37.9702ZM227.663 37.9702C228.01 37.9702 228.278 38.0685 228.476 38.2612C228.669 38.4499 228.784 38.7331 228.81 39.1106V39.1931H226.428C226.485 38.8078 226.617 38.5089 226.828 38.2927C227.039 38.0764 227.32 37.9702 227.663 37.9702ZM249.935 37.9702C250.352 37.9702 250.677 38.1196 250.919 38.4146C251.161 38.7095 251.284 39.1066 251.284 39.61C251.284 40.1802 251.165 40.6127 250.928 40.9076C250.695 41.2026 250.37 41.348 249.943 41.348C249.521 41.348 249.192 41.2026 248.955 40.9155C248.722 40.6245 248.603 40.2195 248.603 39.7083C248.603 39.1302 248.722 38.6977 248.963 38.4067C249.201 38.1157 249.526 37.9702 249.935 37.9702ZM261.387 37.9702C261.804 37.9702 262.134 38.1196 262.371 38.4146C262.617 38.7095 262.736 39.1066 262.736 39.61C262.736 40.1802 262.617 40.6127 262.384 40.9076C262.147 41.2026 261.822 41.348 261.4 41.348C260.978 41.348 260.648 41.2026 260.411 40.9155C260.174 40.6245 260.055 40.2195 260.055 39.7083C260.055 39.1302 260.174 38.6977 260.415 38.4067C260.657 38.1157 260.978 37.9702 261.387 37.9702ZM284.379 37.9702C284.792 37.9702 285.122 38.1196 285.359 38.4146C285.605 38.7095 285.728 39.1066 285.728 39.61C285.728 40.1802 285.609 40.6127 285.372 40.9076C285.139 41.2026 284.81 41.348 284.388 41.348C283.966 41.348 283.636 41.2026 283.399 40.9155C283.162 40.6245 283.043 40.2195 283.043 39.7083C283.043 39.1302 283.162 38.6977 283.403 38.4067C283.645 38.1157 283.97 37.9702 284.379 37.9702ZM163.191 37.9899C163.696 37.9899 164.065 38.1786 164.303 38.5561V40.7503C164.061 41.1357 163.687 41.3284 163.182 41.3284C162.778 41.3284 162.457 41.1868 162.229 40.8998C162 40.6127 161.89 40.2195 161.89 39.7161C161.89 39.1499 162 38.7173 162.229 38.4264C162.457 38.1354 162.778 37.9899 163.191 37.9899ZM278.486 37.9899C278.89 37.9899 279.198 38.1236 279.413 38.3949C279.624 38.6662 279.734 39.0713 279.734 39.61V39.7555C279.725 40.2824 279.615 40.6756 279.404 40.9391C279.189 41.1986 278.886 41.3284 278.495 41.3284C277.95 41.3284 277.567 41.1121 277.343 40.6796V38.623C277.563 38.2022 277.945 37.9899 278.486 37.9899ZM172.868 39.8105H173.544V40.7503C173.435 40.9312 173.268 41.0767 173.048 41.1829C172.833 41.2891 172.6 41.3441 172.354 41.3441C172.085 41.3441 171.87 41.2812 171.708 41.1554C171.549 41.0256 171.47 40.8526 171.47 40.6402C171.47 40.3728 171.589 40.1684 171.822 40.0268C172.055 39.8813 172.406 39.8105 172.868 39.8105ZM219.485 39.8105H220.157V40.7503C220.047 40.9312 219.885 41.0767 219.665 41.1829C219.45 41.2891 219.217 41.3441 218.971 41.3441C218.703 41.3441 218.487 41.2812 218.325 41.1554C218.167 41.0256 218.087 40.8526 218.087 40.6402C218.087 40.3728 218.206 40.1684 218.439 40.0268C218.672 39.8813 219.019 39.8105 219.485 39.8105ZM238.825 39.8105H239.502V40.7503C239.392 40.9312 239.225 41.0767 239.005 41.1829C238.79 41.2891 238.557 41.3441 238.311 41.3441C238.043 41.3441 237.828 41.2812 237.669 41.1554C237.511 41.0256 237.432 40.8526 237.432 40.6402C237.432 40.3728 237.546 40.1684 237.779 40.0268C238.017 39.8813 238.364 39.8105 238.825 39.8105ZM272.856 39.8105H273.533V40.7503C273.423 40.9312 273.256 41.0767 273.037 41.1829C272.821 41.2891 272.588 41.3441 272.342 41.3441C272.074 41.3441 271.859 41.2812 271.696 41.1554C271.542 41.0256 271.463 40.8526 271.463 40.6402C271.463 40.3728 271.578 40.1684 271.811 40.0268C272.043 39.8813 272.395 39.8105 272.856 39.8105ZM294.073 39.8105H294.75V40.7503C294.64 40.9312 294.473 41.0767 294.253 41.1829C294.038 41.2891 293.805 41.3441 293.559 41.3441C293.291 41.3441 293.076 41.2812 292.917 41.1554C292.759 41.0256 292.68 40.8526 292.68 40.6402C292.68 40.3728 292.794 40.1684 293.027 40.0268C293.26 39.8813 293.612 39.8105 294.073 39.8105Z" fill="#FCFCFC"/>
</svg>
