<svg width="500" height="500" viewBox="0 0 500 500" fill="none" xmlns="http://www.w3.org/2000/svg">
<g clip-path="url(#clip0_124_2)">
<path d="M488.67 241C483.49 284.91 463.44 335.95 423.4 359.4C362.91 394.84 368 449.35 249.9 473C232.682 476.556 215.13 478.233 197.55 478C188.951 477.846 180.37 477.145 171.86 475.9C96.8601 464.9 46.3201 412.78 27.7901 349.81C3.41008 267.01 52.0901 212.81 84.3601 180.13C116.63 147.45 140.26 45.68 256.15 21.47C273.844 17.7039 291.913 15.9893 310 16.36C351.23 17.36 396.2 30.91 427.32 59.17C429.66 61.29 431.937 63.4867 434.15 65.76C477.36 110.16 495.74 181.15 488.67 241Z" fill="#CFD8DC"/>
<path opacity="0.7" d="M488.67 241C483.49 284.91 463.44 335.95 423.4 359.4C362.91 394.84 368 449.35 249.9 473C232.682 476.556 215.13 478.233 197.55 478C188.951 477.846 180.37 477.145 171.86 475.9C96.8601 464.9 46.3201 412.78 27.7901 349.81C3.41008 267.01 52.0901 212.81 84.3601 180.13C116.63 147.45 140.26 45.68 256.15 21.47C273.844 17.7039 291.913 15.9893 310 16.36C351.23 17.36 396.2 30.91 427.32 59.17C429.66 61.29 431.937 63.4867 434.15 65.76C477.36 110.16 495.74 181.15 488.67 241Z" fill="white"/>
<g opacity="0.3">
<path d="M404.34 186.34C423.399 186.34 438.85 170.889 438.85 151.83C438.85 132.77 423.399 117.32 404.34 117.32C385.281 117.32 369.83 132.77 369.83 151.83C369.83 170.889 385.281 186.34 404.34 186.34Z" stroke="#001C3C" stroke-linecap="round" stroke-linejoin="round"/>
<path d="M404.34 184C422.107 184 436.51 169.597 436.51 151.83C436.51 134.063 422.107 119.66 404.34 119.66C386.573 119.66 372.17 134.063 372.17 151.83C372.17 169.597 386.573 184 404.34 184Z" stroke="#001C3C" stroke-linecap="round" stroke-linejoin="round"/>
<path d="M391.46 151.83H404.34L420.42 136.04" stroke="#001C3C" stroke-linecap="round" stroke-linejoin="round"/>
</g>
<g opacity="0.3">
<path d="M245.68 167.13H199.8V247.66H245.68V167.13Z" stroke="black" stroke-linecap="round" stroke-linejoin="round"/>
<path d="M245.68 305.08V254.67H199.8V335.2H245.68V311.85" stroke="black" stroke-linecap="round" stroke-linejoin="round"/>
<path d="M245.68 342.21H199.8V422.74H245.68V342.21Z" stroke="black" stroke-linecap="round" stroke-linejoin="round"/>
<path d="M168.71 167.13H148.41V247.67H194.29V167.13H175.1" stroke="black" stroke-linecap="round" stroke-linejoin="round"/>
<path d="M167.11 254.67H148.41V335.2H194.29V254.67H173.5" stroke="black" stroke-linecap="round" stroke-linejoin="round"/>
<path d="M194.29 342.21H148.41V422.74H194.29V342.21Z" stroke="black" stroke-linecap="round" stroke-linejoin="round"/>
<path d="M142.9 167.13H97.0198V247.66H142.9V167.13Z" stroke="black" stroke-linecap="round" stroke-linejoin="round"/>
<path d="M142.9 254.67H97.0198V335.2H142.9V254.67Z" stroke="black" stroke-linecap="round" stroke-linejoin="round"/>
<path d="M45.6299 233.96V247.67H91.5199V167.13H45.6299V227.19" stroke="black" stroke-linecap="round" stroke-linejoin="round"/>
<path d="M91.5099 254.67H45.6299V335.2H91.5099V254.67Z" stroke="black" stroke-linecap="round" stroke-linejoin="round"/>
</g>
<path d="M69.5502 316.17C69.5502 316.17 67.1002 322.92 61.8702 323.85C56.6402 324.78 47.4402 314.63 53.2702 309.41C59.1002 304.19 67.1002 312.48 69.5502 316.17Z" fill="#CFD8DC" stroke="#001C3C" stroke-linecap="round" stroke-linejoin="round"/>
<path d="M77.5401 283C77.5401 283 69.8601 301.74 72.9301 310.95C76.0001 320.16 95.0501 326.95 100.58 314.95C106.11 302.95 93.8201 286.07 89.2101 282.39C84.6001 278.71 79.0801 279.92 77.5401 283Z" fill="#CFD8DC" stroke="#001C3C" stroke-linecap="round" stroke-linejoin="round"/>
<path d="M122.39 291C122.39 291 109.18 303 107.64 315C106.1 327 115.02 331.28 124.23 329.74C133.44 328.2 138.05 304.86 135.29 294.11C132.53 283.36 122.39 291 122.39 291Z" fill="#CFD8DC" stroke="#001C3C" stroke-linecap="round" stroke-linejoin="round"/>
<path d="M124.85 357.33C124.85 357.33 110.1 357.94 109.49 365.01C108.88 372.08 115.94 373.61 123 367.47C130.06 361.33 131 357.64 124.85 357.33Z" fill="#CFD8DC" stroke="#001C3C" stroke-linecap="round" stroke-linejoin="round"/>
<path d="M109.73 366.69C109.73 366.69 121.35 361.38 126.58 360.45" stroke="#001C3C" stroke-miterlimit="10"/>
<path d="M128.13 403.56C128.13 403.56 117.3 393.56 111.86 398.08C106.42 402.6 110.31 408.72 119.64 409.4C128.97 410.08 132.25 408.13 128.13 403.56Z" fill="#CFD8DC" stroke="#001C3C" stroke-linecap="round" stroke-linejoin="round"/>
<path d="M110.84 399.44C110.84 399.44 122.84 403.93 127.14 406.99" stroke="#001C3C" stroke-miterlimit="10"/>
<path d="M71 400.61C71 400.61 85.93 386.79 93.44 393.05C100.95 399.31 95.58 407.72 82.7 408.66C69.82 409.6 65.33 406.91 71 400.61Z" fill="#CFD8DC" stroke="#001C3C" stroke-linecap="round" stroke-linejoin="round"/>
<path d="M94.8501 394.93C94.8501 394.93 78.3501 401.12 72.3701 405.34" stroke="#001C3C" stroke-miterlimit="10"/>
<path d="M88.29 372.07C88.29 372.07 86.76 379.45 81.23 382.21C75.7 384.97 65.87 379.14 71.09 370.21C76.31 361.28 85.53 368.39 88.29 372.07Z" fill="#CFD8DC" stroke="#001C3C" stroke-linecap="round" stroke-linejoin="round"/>
<path d="M75.3901 349C75.3901 349 72.6201 342.85 61.8701 346.84C51.1201 350.83 46.8701 356.98 53.5801 359.13C60.2901 361.28 75.3901 349 75.3901 349Z" fill="#CFD8DC" stroke="#001C3C" stroke-linecap="round" stroke-linejoin="round"/>
<path d="M73.33 348.76C73.33 348.76 61.94 350 55.79 355.22" stroke="#001C3C" stroke-miterlimit="10"/>
<path d="M106.11 275.31C106.11 275.31 107.95 279.61 111.64 278.69C115.33 277.77 116.24 272.24 122.08 273.78C127.92 275.32 132.83 282.07 132.83 279C132.83 275.93 125.46 267.94 117.17 267.94C108.88 267.94 106.41 271.32 106.11 275.31Z" fill="#CFD8DC" stroke="#001C3C" stroke-linecap="round" stroke-linejoin="round"/>
<path d="M75.3901 349C75.3901 349 88.6201 346.46 94.1201 361.14C94.6657 362.613 95.1297 364.116 95.5101 365.64" stroke="#001C3C" stroke-miterlimit="10"/>
<path d="M130.59 334.81C130.59 334.81 133.36 328.66 144.11 332.66C154.86 336.66 159.11 342.79 152.4 344.94C145.69 347.09 130.59 334.81 130.59 334.81Z" fill="#CFD8DC" stroke="#001C3C" stroke-linecap="round" stroke-linejoin="round"/>
<path d="M133.05 335.21C133.05 335.21 144.13 334.6 149.36 341.06" stroke="#001C3C" stroke-miterlimit="10"/>
<path d="M130.59 334.81C127.484 334.371 124.317 334.8 121.44 336.05" stroke="#001C3C" stroke-miterlimit="10"/>
<path d="M82.4401 323.79C75.9601 317.17 69.5501 316.17 69.5501 316.17C69.5501 316.17 60.0901 313.66 56.4001 317.05" stroke="#001C3C" stroke-miterlimit="10"/>
<path d="M83.7602 289.76L83.1802 287.19" stroke="#001C3C" stroke-miterlimit="10"/>
<path d="M98.7101 425.56C98.7101 425.56 100.09 372.66 98.7101 356.56C97.3301 340.46 90.9101 321.68 90.9101 321.68L84.3701 292.45" stroke="#001C3C" stroke-miterlimit="10"/>
<path d="M126.02 301.12L127.2 298.58" stroke="#001C3C" stroke-miterlimit="10"/>
<path d="M101.93 425.5C101.93 425.5 102.39 377.25 104.22 363.5C106.05 349.75 113.4 328.16 113.4 328.16L124.67 304" stroke="#001C3C" stroke-miterlimit="10"/>
<path d="M109.73 366.69C109.73 366.69 106.52 394.36 104.73 425.57" stroke="#001C3C" stroke-miterlimit="10"/>
<path d="M94.12 425.5C94.12 425.5 95.04 381.38 93.21 375.41C91.38 369.44 88.29 372.07 88.29 372.07C88.29 372.07 79.8 373.07 76.72 378" stroke="#001C3C" stroke-miterlimit="10"/>
<path d="M96.23 369.12C98.63 382.57 96.42 425.55 96.42 425.55" stroke="#001C3C" stroke-miterlimit="10"/>
<path d="M118.83 337.5C115.561 339.836 113.112 343.143 111.83 346.95C106.32 361.64 106.95 425.57 106.95 425.57" stroke="#001C3C" stroke-miterlimit="10"/>
<path d="M84 325.54C87.4506 329.704 90.0926 334.476 91.79 339.61C99.13 360.73 101.89 415.4 100.51 425.5" stroke="#001C3C" stroke-miterlimit="10"/>
<path d="M102.69 345.3C102.24 371.94 101.93 425.5 101.93 425.5" stroke="#001C3C" stroke-miterlimit="10"/>
<path d="M102.75 342C103.05 324.38 103.41 307.14 103.75 297.86C104.67 273.99 106.1 275.33 106.1 275.33C106.1 275.33 107.8 269.97 117.34 270.59" stroke="#001C3C" stroke-miterlimit="10"/>
<path d="M91 362.1C91 362.1 83.32 355.26 86.39 351.89C89.46 348.52 108.51 346.05 114.04 350.43C119.57 354.81 107.28 360.98 102.68 362.33C98.08 363.68 92.53 363.23 91 362.1Z" fill="#CFD8DC" stroke="#001C3C" stroke-linecap="round" stroke-linejoin="round"/>
<path d="M98.0802 356.5C97.977 357.162 97.9202 357.83 97.9102 358.5" stroke="#001C3C" stroke-miterlimit="10"/>
<path d="M100.72 348.5C99.9228 350.142 99.2541 351.844 98.72 353.59" stroke="#001C3C" stroke-miterlimit="10"/>
<path d="M91 406.88C91 406.88 83.32 400.03 86.39 396.66C89.46 393.29 108.51 390.83 114.04 395.2C119.57 399.57 107.28 405.76 102.68 407.1C98.08 408.44 92.53 408 91 406.88Z" fill="#CFD8DC" stroke="#001C3C" stroke-linecap="round" stroke-linejoin="round"/>
<path d="M100.72 393.28C100.72 393.28 97.9102 398.9 97.9102 403.28" stroke="#001C3C" stroke-miterlimit="10"/>
<path d="M96.71 387.94C96.71 387.94 91.5 383.29 93.58 381.01C95.66 378.73 108.58 377.01 112.35 380.01C116.12 383.01 107.76 387.17 104.63 388.09C101.5 389.01 97.75 388.71 96.71 387.94Z" fill="#CFD8DC" stroke="#001C3C" stroke-linecap="round" stroke-linejoin="round"/>
<path d="M103.32 378.71C103.32 378.71 101.41 382.52 101.41 385.52" stroke="#001C3C" stroke-miterlimit="10"/>
<path d="M110.29 417.89H89.5V463.99H110.29V417.89Z" fill="#001C3C" stroke="#001C3C" stroke-linecap="round" stroke-linejoin="round"/>
<path d="M457.03 318.89H480.69V312.82H457.03V318.89Z" fill="#001C3C"/>
<path d="M469.47 314.89C470.071 314.891 470.649 314.663 471.088 314.252C471.526 313.842 471.792 313.279 471.83 312.68L475.78 255C475.824 254.372 475.617 253.753 475.204 253.279C474.791 252.805 474.207 252.513 473.58 252.47C472.953 252.426 472.334 252.633 471.859 253.046C471.385 253.458 471.094 254.042 471.05 254.67L467.1 312.32C467.059 312.948 467.268 313.567 467.683 314.041C468.097 314.515 468.682 314.806 469.31 314.85L469.47 314.89Z" fill="#001C3C"/>
<path d="M473.71 257.85C474.208 257.85 474.694 257.694 475.098 257.403C475.503 257.112 475.805 256.7 475.962 256.228C476.12 255.755 476.124 255.244 475.974 254.769C475.825 254.294 475.53 253.878 475.13 253.58L436.24 226.21C435.991 226.058 435.694 226.005 435.408 226.061C435.122 226.116 434.867 226.277 434.693 226.511C434.519 226.745 434.438 227.036 434.468 227.326C434.497 227.616 434.633 227.885 434.85 228.08L472.3 257.38C472.706 257.685 473.201 257.85 473.71 257.85Z" fill="#001C3C"/>
<path d="M470.08 255.18C470.08 254.46 470.294 253.756 470.694 253.158C471.094 252.559 471.662 252.093 472.327 251.817C472.992 251.542 473.724 251.47 474.43 251.61C475.136 251.75 475.785 252.097 476.294 252.606C476.803 253.115 477.15 253.764 477.29 254.47C477.431 255.176 477.359 255.908 477.083 256.573C476.808 257.238 476.341 257.807 475.742 258.207C475.144 258.607 474.44 258.82 473.72 258.82C472.755 258.82 471.829 258.437 471.146 257.754C470.464 257.071 470.08 256.145 470.08 255.18Z" fill="#001C3C"/>
<path d="M431.24 228.48C431.24 227.76 431.453 227.056 431.853 226.458C432.253 225.859 432.822 225.392 433.487 225.117C434.152 224.841 434.884 224.769 435.59 224.91C436.296 225.05 436.945 225.397 437.454 225.906C437.963 226.415 438.31 227.064 438.45 227.77C438.591 228.476 438.518 229.208 438.243 229.873C437.967 230.538 437.501 231.106 436.902 231.506C436.304 231.906 435.6 232.12 434.88 232.12C433.915 232.12 432.989 231.736 432.306 231.054C431.623 230.371 431.24 229.445 431.24 228.48Z" fill="#001C3C"/>
<path d="M419.44 233.47L433.17 244.47L437.77 232.58C438.167 231.551 438.225 230.423 437.938 229.358C437.65 228.294 437.031 227.349 436.17 226.66C435.312 225.968 434.255 225.569 433.154 225.521C432.053 225.472 430.966 225.777 430.05 226.39L419.44 233.47Z" fill="#001C3C"/>
<path d="M328.15 248.35L265.7 245.81L264.71 256.55L326.88 262.25L328.15 248.35Z" fill="#001C3C" stroke="#001C3C" stroke-linecap="round" stroke-linejoin="round"/>
<path d="M299.46 249.83L267.63 247.83L266.89 255.9L298.59 258.81L299.46 249.83Z" fill="white" stroke="#001C3C" stroke-linecap="round" stroke-linejoin="round"/>
<path d="M299.46 249.83C298.63 249.853 297.823 250.115 297.139 250.585C296.454 251.055 295.919 251.713 295.6 252.48C295.28 253.247 295.189 254.09 295.337 254.907C295.485 255.725 295.866 256.482 296.435 257.088C297.003 257.693 297.735 258.122 298.541 258.322C299.347 258.522 300.194 258.484 300.98 258.214C301.765 257.944 302.456 257.452 302.969 256.799C303.482 256.145 303.795 255.357 303.87 254.53C303.905 253.323 303.461 252.151 302.635 251.27C301.808 250.39 300.667 249.872 299.46 249.83ZM299.26 257.15C297.15 256.95 295.55 255.45 295.71 253.78C295.87 252.11 297.71 250.93 299.82 251.12C301.93 251.31 303.53 252.82 303.37 254.49C303.21 256.16 301.38 257.34 299.26 257.15Z" fill="white" stroke="#001C3C" stroke-linecap="round" stroke-linejoin="round"/>
<path d="M328.15 248.35L299.67 247.08L298.51 259.65L326.88 262.25L328.15 248.35Z" fill="#001C3C" stroke="#001C3C" stroke-linecap="round" stroke-linejoin="round"/>
<path d="M323.263 254.006L303.925 252.233L303.659 255.131L322.998 256.904L323.263 254.006Z" fill="white" stroke="#001C3C" stroke-linecap="round" stroke-linejoin="round"/>
<path d="M295.59 251.01L272.82 249.84" stroke="#001C3C" stroke-width="0.5" stroke-linecap="round" stroke-linejoin="round"/>
<path d="M274.78 252.23L280.38 252.52" stroke="#001C3C" stroke-width="0.5" stroke-linecap="round" stroke-linejoin="round"/>
<path d="M293.92 254.85L282.74 253.93" stroke="#001C3C" stroke-width="0.5" stroke-linecap="round" stroke-linejoin="round"/>
<path d="M292.45 253.2L285.36 252.55" stroke="#001C3C" stroke-width="0.5" stroke-linecap="round" stroke-linejoin="round"/>
<path d="M276.98 255.35L289.87 256.53" stroke="#001C3C" stroke-width="0.5" stroke-linecap="round" stroke-linejoin="round"/>
<path d="M262.19 254.81L324.33 261.57L323.71 272.33L261.39 268.74L262.19 254.81Z" fill="#001C3C" stroke="#001C3C" stroke-linecap="round" stroke-linejoin="round"/>
<path d="M290.35 260.53L322.12 263.28L321.66 271.37L289.87 269.54L290.35 260.53Z" fill="white" stroke="#001C3C" stroke-linecap="round" stroke-linejoin="round"/>
<path d="M290.35 260.53C291.168 260.676 291.926 261.055 292.533 261.621C293.14 262.187 293.571 262.917 293.773 263.722C293.976 264.528 293.941 265.374 293.674 266.161C293.406 266.947 292.917 267.639 292.266 268.154C291.615 268.669 290.828 268.985 290.002 269.063C289.175 269.142 288.343 268.98 287.606 268.598C286.869 268.215 286.259 267.627 285.848 266.906C285.437 266.184 285.243 265.359 285.29 264.53C285.435 263.331 286.049 262.237 286.996 261.488C287.944 260.739 289.15 260.394 290.35 260.53ZM289.46 267.8C291.58 267.92 293.38 266.67 293.46 265C293.54 263.33 291.92 261.88 289.79 261.76C287.66 261.64 285.87 262.89 285.79 264.56C285.71 266.23 287.33 267.68 289.46 267.8Z" fill="white" stroke="#001C3C" stroke-linecap="round" stroke-linejoin="round"/>
<path d="M262.19 254.81L290.55 257.79L289.82 270.38L261.39 268.74L262.19 254.81Z" fill="#001C3C" stroke="#001C3C" stroke-linecap="round" stroke-linejoin="round"/>
<path d="M266.027 264.019L285.415 265.137L285.583 262.232L266.195 261.114L266.027 264.019Z" fill="white" stroke="#001C3C" stroke-linecap="round" stroke-linejoin="round"/>
<path d="M294 262.27L316.69 264.5" stroke="#001C3C" stroke-width="0.5" stroke-linecap="round" stroke-linejoin="round"/>
<path d="M314.4 266.57L308.81 266.03" stroke="#001C3C" stroke-width="0.5" stroke-linecap="round" stroke-linejoin="round"/>
<path d="M295.08 266.32L306.27 267.07" stroke="#001C3C" stroke-width="0.5" stroke-linecap="round" stroke-linejoin="round"/>
<path d="M296.78 264.9L303.89 265.31" stroke="#001C3C" stroke-width="0.5" stroke-linecap="round" stroke-linejoin="round"/>
<path d="M311.76 269.33L298.83 268.59" stroke="#001C3C" stroke-width="0.5" stroke-linecap="round" stroke-linejoin="round"/>
<path d="M269.48 269.19L331.86 273.11L331.73 283.89L269.31 283.13L269.48 269.19Z" fill="#001C3C" stroke="#001C3C" stroke-linecap="round" stroke-linejoin="round"/>
<path d="M297.86 273.62L329.73 274.92L329.63 283.02L297.8 282.64L297.86 273.62Z" fill="white" stroke="#001C3C" stroke-linecap="round" stroke-linejoin="round"/>
<path d="M297.86 273.61C298.684 273.716 299.46 274.058 300.094 274.595C300.728 275.131 301.194 275.84 301.435 276.635C301.676 277.43 301.681 278.278 301.452 279.077C301.222 279.875 300.766 280.59 300.139 281.136C299.513 281.681 298.742 282.034 297.919 282.151C297.097 282.269 296.258 282.146 295.503 281.798C294.749 281.45 294.111 280.891 293.667 280.188C293.223 279.486 292.991 278.671 293 277.84C293.092 276.638 293.654 275.52 294.563 274.729C295.472 273.937 296.657 273.535 297.86 273.61ZM297.3 280.92C299.43 280.92 301.17 279.61 301.19 277.92C301.21 276.23 299.5 274.87 297.38 274.84C295.26 274.81 293.51 276.15 293.49 277.84C293.47 279.53 295.18 280.89 297.3 280.92Z" fill="white" stroke="#001C3C" stroke-linecap="round" stroke-linejoin="round"/>
<path d="M269.48 269.19L297.94 270.86L297.79 283.48L269.31 283.13L269.48 269.19Z" fill="#001C3C" stroke="#001C3C" stroke-linecap="round" stroke-linejoin="round"/>
<path d="M273.708 278.23L293.127 278.463L293.162 275.554L273.743 275.32L273.708 278.23Z" fill="white" stroke="#001C3C" stroke-linecap="round" stroke-linejoin="round"/>
<path d="M301.59 275.19L324.36 276.38" stroke="#001C3C" stroke-width="0.5" stroke-linecap="round" stroke-linejoin="round"/>
<path d="M322.17 278.55L316.56 278.27" stroke="#001C3C" stroke-width="0.5" stroke-linecap="round" stroke-linejoin="round"/>
<path d="M302.85 279.18L314.07 279.42" stroke="#001C3C" stroke-width="0.5" stroke-linecap="round" stroke-linejoin="round"/>
<path d="M304.49 277.69L311.61 277.78" stroke="#001C3C" stroke-width="0.5" stroke-linecap="round" stroke-linejoin="round"/>
<path d="M319.65 281.43L306.71 281.28" stroke="#001C3C" stroke-width="0.5" stroke-linecap="round" stroke-linejoin="round"/>
<path d="M331.19 283.24L268.68 282.73L268.05 293.49L330.37 297.17L331.19 283.24Z" fill="#001C3C" stroke="#001C3C" stroke-linecap="round" stroke-linejoin="round"/>
<path d="M302.56 285.64L270.68 284.69L270.21 292.77L301.99 294.65L302.56 285.64Z" fill="white" stroke="#001C3C" stroke-linecap="round" stroke-linejoin="round"/>
<path d="M302.56 285.65C301.73 285.699 300.933 285.988 300.264 286.48C299.594 286.972 299.081 287.648 298.787 288.425C298.492 289.202 298.429 290.047 298.604 290.86C298.779 291.672 299.185 292.416 299.773 293.003C300.361 293.59 301.106 293.994 301.919 294.168C302.732 294.341 303.577 294.275 304.354 293.979C305.13 293.683 305.804 293.169 306.295 292.498C306.786 291.828 307.072 291.029 307.12 290.2C307.115 288.993 306.632 287.837 305.778 286.985C304.924 286.132 303.767 285.653 302.56 285.65ZM302.56 292.97C300.44 292.84 298.8 291.39 298.9 289.72C299 288.05 300.8 286.8 302.9 286.93C305 287.06 306.66 288.51 306.56 290.17C306.46 291.83 304.73 293.09 302.6 293L302.56 292.97Z" fill="white" stroke="#001C3C" stroke-linecap="round" stroke-linejoin="round"/>
<path d="M331.19 283.24L302.68 282.89L301.94 295.49L330.37 297.17L331.19 283.24Z" fill="#001C3C" stroke="#001C3C" stroke-linecap="round" stroke-linejoin="round"/>
<path d="M326.508 289.019L307.122 287.877L306.951 290.782L326.337 291.924L326.508 289.019Z" fill="white" stroke="#001C3C" stroke-linecap="round" stroke-linejoin="round"/>
<path d="M298.73 286.95L275.94 286.53" stroke="#001C3C" stroke-width="0.5" stroke-linecap="round" stroke-linejoin="round"/>
<path d="M277.97 288.85L283.58 288.96" stroke="#001C3C" stroke-width="0.5" stroke-linecap="round" stroke-linejoin="round"/>
<path d="M297.19 290.84L285.99 290.29" stroke="#001C3C" stroke-width="0.5" stroke-linecap="round" stroke-linejoin="round"/>
<path d="M295.67 289.24L288.56 288.82" stroke="#001C3C" stroke-width="0.5" stroke-linecap="round" stroke-linejoin="round"/>
<path d="M280.28 291.9L293.2 292.66" stroke="#001C3C" stroke-width="0.5" stroke-linecap="round" stroke-linejoin="round"/>
<path d="M265.48 291.84L327.81 296.57L327.54 307.35L265.13 305.79L265.48 291.84Z" fill="#001C3C" stroke="#001C3C" stroke-linecap="round" stroke-linejoin="round"/>
<path d="M293.8 296.64L325.65 298.35L325.45 306.45L293.62 305.66L293.8 296.64Z" fill="white" stroke="#001C3C" stroke-linecap="round" stroke-linejoin="round"/>
<path d="M293.8 296.64C294.622 296.758 295.393 297.111 296.02 297.657C296.646 298.202 297.102 298.918 297.331 299.716C297.561 300.515 297.554 301.363 297.313 302.158C297.072 302.953 296.606 303.661 295.971 304.198C295.337 304.734 294.561 305.076 293.737 305.181C292.913 305.287 292.076 305.152 291.326 304.793C290.577 304.434 289.948 303.866 289.513 303.158C289.079 302.449 288.859 301.631 288.88 300.8C288.987 299.598 289.564 298.487 290.485 297.709C291.406 296.93 292.597 296.546 293.8 296.64ZM293.15 303.93C295.27 303.99 297.03 302.67 297.07 301C297.11 299.33 295.42 297.94 293.3 297.88C291.18 297.82 289.42 299.14 289.37 300.81C289.32 302.48 291 303.88 293.15 303.93Z" fill="white" stroke="#001C3C" stroke-linecap="round" stroke-linejoin="round"/>
<path d="M265.48 291.84L293.92 293.89L293.6 306.5L265.13 305.79L265.48 291.84Z" fill="#001C3C" stroke="#001C3C" stroke-linecap="round" stroke-linejoin="round"/>
<path d="M269.594 300.939L289.008 301.424L289.08 298.515L269.666 298.03L269.594 300.939Z" fill="white" stroke="#001C3C" stroke-linecap="round" stroke-linejoin="round"/>
<path d="M297.51 298.26L320.26 299.75" stroke="#001C3C" stroke-width="0.5" stroke-linecap="round" stroke-linejoin="round"/>
<path d="M318.04 301.89L312.44 301.53" stroke="#001C3C" stroke-width="0.5" stroke-linecap="round" stroke-linejoin="round"/>
<path d="M298.72 302.27L309.93 302.66" stroke="#001C3C" stroke-width="0.5" stroke-linecap="round" stroke-linejoin="round"/>
<path d="M300.37 300.8L307.49 300.98" stroke="#001C3C" stroke-width="0.5" stroke-linecap="round" stroke-linejoin="round"/>
<path d="M315.49 304.74L302.55 304.42" stroke="#001C3C" stroke-width="0.5" stroke-linecap="round" stroke-linejoin="round"/>
<path d="M274.77 304.39L337.19 307.56V318.34H274.77V304.39Z" fill="#001C3C" stroke="#001C3C" stroke-linecap="round" stroke-linejoin="round"/>
<path d="M303.2 308.48L335.08 309.4V317.5H303.25L303.2 308.48Z" fill="white" stroke="#001C3C" stroke-linecap="round" stroke-linejoin="round"/>
<path d="M303.2 308.48C304.025 308.578 304.804 308.913 305.443 309.443C306.082 309.974 306.554 310.678 306.803 311.47C307.051 312.263 307.065 313.111 306.843 313.911C306.622 314.712 306.173 315.431 305.552 315.982C304.931 316.534 304.163 316.894 303.342 317.02C302.521 317.146 301.681 317.031 300.924 316.691C300.166 316.351 299.523 315.798 299.072 315.101C298.62 314.404 298.38 313.591 298.38 312.76C298.457 311.555 299.007 310.43 299.91 309.628C300.812 308.827 301.995 308.414 303.2 308.48ZM302.73 315.79C304.86 315.79 306.58 314.43 306.58 312.79C306.58 311.15 304.86 309.79 302.73 309.79C300.6 309.79 298.88 311.14 298.88 312.79C298.88 314.44 300.6 315.79 302.73 315.79Z" fill="white" stroke="#001C3C" stroke-linecap="round" stroke-linejoin="round"/>
<path d="M274.77 304.39L303.25 305.73V318.34H274.77V304.39Z" fill="#001C3C" stroke="#001C3C" stroke-linecap="round" stroke-linejoin="round"/>
<path d="M279.11 313.37H298.53V310.46H279.11V313.37Z" fill="white" stroke="#001C3C" stroke-linecap="round" stroke-linejoin="round"/>
<path d="M306.95 310.01L329.73 310.93" stroke="#001C3C" stroke-width="0.5" stroke-linecap="round" stroke-linejoin="round"/>
<path d="M327.56 313.12L321.95 312.91" stroke="#001C3C" stroke-width="0.5" stroke-linecap="round" stroke-linejoin="round"/>
<path d="M308.26 313.99L319.47 314.09" stroke="#001C3C" stroke-width="0.5" stroke-linecap="round" stroke-linejoin="round"/>
<path d="M309.87 312.48H316.99" stroke="#001C3C" stroke-width="0.5" stroke-linecap="round" stroke-linejoin="round"/>
<path d="M325.08 316.04H312.14" stroke="#001C3C" stroke-width="0.5" stroke-linecap="round" stroke-linejoin="round"/>
<path d="M409.57 283.27L472.02 280.61L473.03 291.35L410.87 297.16L409.57 283.27Z" fill="#001C3C" stroke="#001C3C" stroke-linecap="round" stroke-linejoin="round"/>
<path d="M438.26 284.69L470.09 282.63L470.85 290.7L439.15 293.67L438.26 284.69Z" fill="white" stroke="#001C3C" stroke-linecap="round" stroke-linejoin="round"/>
<path d="M438.26 284.69C439.091 284.709 439.899 284.968 440.586 285.435C441.273 285.903 441.81 286.559 442.133 287.325C442.456 288.091 442.55 288.934 442.405 289.752C442.26 290.571 441.881 291.329 441.314 291.937C440.748 292.545 440.017 292.977 439.211 293.179C438.405 293.381 437.558 293.346 436.771 293.078C435.984 292.81 435.292 292.32 434.777 291.668C434.262 291.015 433.947 290.227 433.87 289.4C433.835 288.195 434.276 287.025 435.098 286.143C435.92 285.262 437.056 284.739 438.26 284.69ZM438.48 292.01C440.59 291.81 442.18 290.3 442.03 288.64C441.88 286.98 440.03 285.79 437.91 285.99C435.79 286.19 434.2 287.69 434.36 289.36C434.52 291.03 436.36 292.21 438.48 292V292.01Z" fill="white" stroke="#001C3C" stroke-linecap="round" stroke-linejoin="round"/>
<path d="M409.57 283.27L438.05 281.95L439.23 294.51L410.87 297.16L409.57 283.27Z" fill="#001C3C" stroke="#001C3C" stroke-linecap="round" stroke-linejoin="round"/>
<path d="M414.771 291.768L434.106 289.961L433.836 287.064L414.5 288.871L414.771 291.768Z" fill="white" stroke="#001C3C" stroke-linecap="round" stroke-linejoin="round"/>
<path d="M442.14 285.87L464.91 284.66" stroke="#001C3C" stroke-width="0.5" stroke-linecap="round" stroke-linejoin="round"/>
<path d="M462.95 287.04L457.35 287.35" stroke="#001C3C" stroke-width="0.5" stroke-linecap="round" stroke-linejoin="round"/>
<path d="M443.81 289.7L454.99 288.76" stroke="#001C3C" stroke-width="0.5" stroke-linecap="round" stroke-linejoin="round"/>
<path d="M445.28 288.05L452.37 287.39" stroke="#001C3C" stroke-width="0.5" stroke-linecap="round" stroke-linejoin="round"/>
<path d="M460.75 290.18L447.87 291.38" stroke="#001C3C" stroke-width="0.5" stroke-linecap="round" stroke-linejoin="round"/>
<path d="M475.54 289.61L413.41 296.48L414.05 307.24L476.37 303.54L475.54 289.61Z" fill="#001C3C" stroke="#001C3C" stroke-linecap="round" stroke-linejoin="round"/>
<path d="M447.4 295.38L415.63 298.19L416.11 306.28L447.89 304.39L447.4 295.38Z" fill="white" stroke="#001C3C" stroke-linecap="round" stroke-linejoin="round"/>
<path d="M447.4 295.38C446.583 295.526 445.825 295.905 445.217 296.471C444.61 297.037 444.179 297.767 443.977 298.573C443.775 299.378 443.809 300.225 444.076 301.011C444.344 301.797 444.833 302.489 445.484 303.004C446.136 303.519 446.922 303.835 447.749 303.914C448.575 303.992 449.407 303.83 450.144 303.448C450.881 303.065 451.491 302.477 451.902 301.756C452.313 301.034 452.507 300.209 452.46 299.38C452.315 298.181 451.701 297.087 450.754 296.338C449.806 295.589 448.601 295.245 447.4 295.38ZM448.3 302.64C446.18 302.77 444.38 301.52 444.3 299.85C444.22 298.18 445.84 296.73 447.96 296.6C450.08 296.47 451.89 297.73 451.96 299.4C452.03 301.07 450.43 302.52 448.3 302.64Z" fill="white" stroke="#001C3C" stroke-linecap="round" stroke-linejoin="round"/>
<path d="M475.54 289.61L447.19 292.63L447.94 305.23L476.37 303.54L475.54 289.61Z" fill="#001C3C" stroke="#001C3C" stroke-linecap="round" stroke-linejoin="round"/>
<path d="M471.545 295.965L452.159 297.117L452.332 300.022L471.717 298.87L471.545 295.965Z" fill="white" stroke="#001C3C" stroke-linecap="round" stroke-linejoin="round"/>
<path d="M443.75 297.13L421.06 299.4" stroke="#001C3C" stroke-width="0.5" stroke-linecap="round" stroke-linejoin="round"/>
<path d="M423.36 301.46L428.94 300.91" stroke="#001C3C" stroke-width="0.5" stroke-linecap="round" stroke-linejoin="round"/>
<path d="M442.68 301.17L431.49 301.95" stroke="#001C3C" stroke-width="0.5" stroke-linecap="round" stroke-linejoin="round"/>
<path d="M440.97 299.76L433.87 300.19" stroke="#001C3C" stroke-width="0.5" stroke-linecap="round" stroke-linejoin="round"/>
<path d="M426 304.22L438.92 303.45" stroke="#001C3C" stroke-width="0.5" stroke-linecap="round" stroke-linejoin="round"/>
<path d="M466.75 304.39L404.33 307.56V318.34H466.75V304.39Z" fill="#001C3C" stroke="#001C3C" stroke-linecap="round" stroke-linejoin="round"/>
<path d="M438.32 308.48L406.44 309.4V317.5H438.27L438.32 308.48Z" fill="white" stroke="#001C3C" stroke-linecap="round" stroke-linejoin="round"/>
<path d="M438.32 308.48C437.495 308.578 436.716 308.913 436.077 309.443C435.438 309.974 434.966 310.678 434.717 311.47C434.469 312.263 434.455 313.111 434.677 313.911C434.899 314.712 435.347 315.431 435.968 315.982C436.589 316.534 437.357 316.894 438.178 317.02C438.999 317.146 439.839 317.031 440.597 316.691C441.354 316.351 441.997 315.798 442.449 315.101C442.9 314.404 443.14 313.591 443.14 312.76C443.063 311.555 442.513 310.43 441.61 309.628C440.708 308.827 439.525 308.414 438.32 308.48ZM438.79 315.79C436.67 315.79 434.94 314.43 434.94 312.79C434.94 311.15 436.67 309.79 438.79 309.79C440.91 309.79 442.64 311.14 442.64 312.79C442.64 314.44 440.92 315.79 438.79 315.79Z" fill="white" stroke="#001C3C" stroke-linecap="round" stroke-linejoin="round"/>
<path d="M466.75 304.39L438.27 305.73V318.34H466.75V304.39Z" fill="#001C3C" stroke="#001C3C" stroke-linecap="round" stroke-linejoin="round"/>
<path d="M462.4 310.47H442.98V313.38H462.4V310.47Z" fill="white" stroke="#001C3C" stroke-linecap="round" stroke-linejoin="round"/>
<path d="M434.57 310.01L411.79 310.93" stroke="#001C3C" stroke-width="0.5" stroke-linecap="round" stroke-linejoin="round"/>
<path d="M413.96 313.12L419.57 312.91" stroke="#001C3C" stroke-width="0.5" stroke-linecap="round" stroke-linejoin="round"/>
<path d="M433.27 313.99L422.05 314.09" stroke="#001C3C" stroke-width="0.5" stroke-linecap="round" stroke-linejoin="round"/>
<path d="M431.65 312.48H424.53" stroke="#001C3C" stroke-width="0.5" stroke-linecap="round" stroke-linejoin="round"/>
<path d="M416.44 316.04H429.38" stroke="#001C3C" stroke-width="0.5" stroke-linecap="round" stroke-linejoin="round"/>
<path d="M379.08 318.64H360.65L357.12 298.19H375.55L379.08 318.64Z" fill="#001C3C" stroke="#001C3C" stroke-linecap="round" stroke-linejoin="round"/>
<path d="M379.09 316.62H349.29V318.64H379.09V316.62Z" fill="#001C3C" stroke="#001C3C" stroke-linecap="round" stroke-linejoin="round"/>
<path d="M400.98 242.75H327.4V303.56H400.98V242.75Z" fill="#001C3C" stroke="#001C3C" stroke-linecap="round" stroke-linejoin="round"/>
<path d="M398.63 242.75H325.05V303.56H398.63V242.75Z" fill="white" stroke="#001C3C" stroke-linecap="round" stroke-linejoin="round"/>
<path d="M394.81 245.9H328.87V300.4H394.81V245.9Z" fill="#001C3C" stroke="#001C3C" stroke-linecap="round" stroke-linejoin="round"/>
<path d="M391.65 252.88H331.62V295.65H391.65V252.88Z" fill="white" stroke="#001C3C" stroke-width="0.5" stroke-linecap="round" stroke-linejoin="round"/>
<path d="M332.65 257.52H391.65" stroke="#001C3C" stroke-width="0.5" stroke-linecap="round" stroke-linejoin="round"/>
<path d="M332.65 264.48H391.65" stroke="#001C3C" stroke-width="0.5" stroke-linecap="round" stroke-linejoin="round"/>
<path d="M332.65 271.43H391.65" stroke="#001C3C" stroke-width="0.5" stroke-linecap="round" stroke-linejoin="round"/>
<path d="M332.65 278.39H391.65" stroke="#001C3C" stroke-width="0.5" stroke-linecap="round" stroke-linejoin="round"/>
<path d="M332.65 285.35H391.65" stroke="#001C3C" stroke-width="0.5" stroke-linecap="round" stroke-linejoin="round"/>
<path d="M332.65 292.3H391.65" stroke="#001C3C" stroke-width="0.5" stroke-linecap="round" stroke-linejoin="round"/>
<path d="M338.06 258.04V295.13" stroke="#001C3C" stroke-width="0.5" stroke-linecap="round" stroke-linejoin="round"/>
<path d="M344.69 258.04V295.13" stroke="#001C3C" stroke-width="0.5" stroke-linecap="round" stroke-linejoin="round"/>
<path d="M351.31 258.04V295.13" stroke="#001C3C" stroke-width="0.5" stroke-linecap="round" stroke-linejoin="round"/>
<path d="M357.94 258.04V295.13" stroke="#001C3C" stroke-width="0.5" stroke-linecap="round" stroke-linejoin="round"/>
<path d="M364.56 258.04V295.13" stroke="#001C3C" stroke-width="0.5" stroke-linecap="round" stroke-linejoin="round"/>
<path d="M371.18 258.04V295.13" stroke="#001C3C" stroke-width="0.5" stroke-linecap="round" stroke-linejoin="round"/>
<path d="M377.81 258.04V295.13" stroke="#001C3C" stroke-width="0.5" stroke-linecap="round" stroke-linejoin="round"/>
<path d="M384.43 258.04V295.13" stroke="#001C3C" stroke-width="0.5" stroke-linecap="round" stroke-linejoin="round"/>
<path d="M353.73 315.9H292.07V318.64H353.73V315.9Z" fill="white" stroke="#001C3C" stroke-linecap="round" stroke-linejoin="round"/>
<path d="M393.37 329.7L404.53 462.51C404.557 462.707 404.625 462.897 404.729 463.066C404.833 463.236 404.971 463.383 405.135 463.496C405.298 463.61 405.484 463.689 405.679 463.727C405.874 463.766 406.076 463.763 406.27 463.72C406.606 463.641 406.902 463.442 407.101 463.16C407.3 462.878 407.389 462.533 407.35 462.19L399.75 329.7H393.37Z" fill="#001C3C" stroke="#001C3C" stroke-linecap="round" stroke-linejoin="round"/>
<path d="M468.33 329.7L479.53 463C479.559 463.198 479.627 463.388 479.732 463.558C479.837 463.728 479.976 463.875 480.14 463.99C480.304 464.104 480.49 464.183 480.686 464.223C480.882 464.263 481.084 464.261 481.28 464.22C481.616 464.137 481.91 463.935 482.109 463.652C482.307 463.369 482.397 463.024 482.36 462.68L474.73 329.7H468.33Z" fill="#001C3C" stroke="#001C3C" stroke-linecap="round" stroke-linejoin="round"/>
<path d="M273.58 329.7L267.69 461.35C267.663 461.695 267.758 462.039 267.959 462.32C268.161 462.602 268.455 462.804 268.79 462.89C268.983 462.938 269.183 462.945 269.379 462.909C269.574 462.874 269.76 462.798 269.924 462.685C270.087 462.573 270.225 462.426 270.328 462.257C270.431 462.087 270.496 461.897 270.52 461.7L279.96 329.7H273.58Z" fill="#001C3C" stroke="#001C3C" stroke-linecap="round" stroke-linejoin="round"/>
<path d="M204.49 329.7L198.62 460.9C198.586 461.247 198.678 461.595 198.881 461.88C199.083 462.165 199.381 462.367 199.72 462.45C199.912 462.496 200.113 462.502 200.308 462.466C200.502 462.43 200.687 462.353 200.851 462.241C201.014 462.129 201.152 461.983 201.255 461.814C201.358 461.645 201.425 461.456 201.45 461.26L210.85 329.7H204.49Z" fill="#001C3C" stroke="#001C3C" stroke-linecap="round" stroke-linejoin="round"/>
<path d="M482.92 322.34H200.32V333.74H482.92V322.34Z" fill="white" stroke="#001C3C" stroke-linecap="round" stroke-linejoin="round"/>
<path d="M482.92 322.34H200.32V326.25H482.92V322.34Z" fill="#001C3C" stroke="#001C3C" stroke-linecap="round" stroke-linejoin="round"/>
<path d="M482.92 322.34H383.53V333.74H482.92V322.34Z" fill="#001C3C" stroke="#001C3C" stroke-linecap="round" stroke-linejoin="round"/>
<path d="M486.46 318.55H196.78V322.9H486.46V318.55Z" fill="white" stroke="#001C3C" stroke-linecap="round" stroke-linejoin="round"/>
<path d="M486.46 318.55H387.67V322.9H486.46V318.55Z" fill="#001C3C" stroke="#001C3C" stroke-linecap="round" stroke-linejoin="round"/>
<path d="M254.9 224.9C254.634 225.842 254.094 226.684 253.35 227.319C252.605 227.955 251.689 228.355 250.717 228.47C249.744 228.585 248.76 228.409 247.888 227.964C247.016 227.519 246.295 226.826 245.817 225.972C245.339 225.118 245.125 224.141 245.202 223.165C245.279 222.189 245.643 221.258 246.25 220.489C246.856 219.72 247.676 219.149 248.607 218.846C249.538 218.544 250.538 218.524 251.48 218.79C252.106 218.966 252.691 219.264 253.201 219.667C253.712 220.07 254.138 220.569 254.456 221.136C254.774 221.704 254.976 222.328 255.052 222.974C255.129 223.62 255.077 224.274 254.9 224.9Z" stroke="#001C3C" stroke-linecap="round" stroke-linejoin="round"/>
<path d="M261.37 214.15C261.37 214.15 252.75 219.72 252.47 221.36C252.318 222.495 252.318 223.645 252.47 224.78C252.47 224.78 244.58 229.78 245.21 230.93C246.2 232.37 247.271 233.753 248.42 235.07C248.42 235.07 246.84 244.72 246.99 245.53C247.14 246.34 252.52 248.23 252.52 248.23L249.91 256.06L270.61 259.06L273.61 252.3C273.61 252.3 284.61 235.02 285.44 232.02C286.27 229.02 286.03 222.47 283.71 219.91C281.39 217.35 270.87 212.09 270.87 212.09C270.358 211.11 269.573 210.299 268.608 209.758C267.644 209.216 266.544 208.967 265.44 209.04C261.3 209 259.42 212.27 261.37 214.15Z" fill="white" stroke="#001C3C" stroke-linecap="round" stroke-linejoin="round"/>
<path d="M283.75 219.9C281.42 217.34 270.91 212.08 270.91 212.08C270.398 211.1 269.613 210.289 268.648 209.748C267.684 209.206 266.584 208.957 265.48 209.03C261.3 209.03 259.42 212.27 261.37 214.15C261.37 214.15 267.32 216.02 266.89 216.85C266.46 217.68 260.48 220 260.13 221.23C259.78 222.46 261.98 226.14 261.98 226.14L259.1 230.28L261.85 232.01C261.85 232.01 264.24 229.63 266.31 231.74C268.38 233.85 267.82 239.22 266.39 240.91C264.96 242.6 260.88 242.21 260.88 242.21C261.565 244.379 262.36 246.511 263.26 248.6C263.58 248.97 270.18 251.33 273.55 252.51L273.65 252.29C273.65 252.29 284.65 235.01 285.48 232.01C286.31 229.01 286.07 222.46 283.75 219.9Z" fill="#001C3C" stroke="#001C3C" stroke-linecap="round" stroke-linejoin="round"/>
<path d="M245.38 222.21L262.91 230.97" stroke="#001C3C" stroke-linecap="round" stroke-linejoin="round"/>
<path d="M252.51 248.23L253.71 245.33" stroke="#001C3C" stroke-linecap="round" stroke-linejoin="round"/>
<path d="M276.54 259.13C276.54 259.13 273.23 254.79 270.95 253.55C268.67 252.31 250.28 252.31 248.62 252.72C246.96 253.13 242 258.1 242 258.1C242 258.1 264.33 257.68 268.67 258.3C271.824 258.822 274.933 259.584 277.97 260.58L276.54 259.13Z" fill="white" stroke="#001C3C" stroke-linecap="round" stroke-linejoin="round"/>
<path d="M332.16 300.9L337.53 297.38L342.29 303.59L337.86 307.46L332.16 300.9Z" fill="white" stroke="#001C3C" stroke-linecap="round" stroke-linejoin="round"/>
<path d="M293.7 268L316.24 307.29L330.66 299.89C331.127 299.649 331.667 299.59 332.176 299.725C332.684 299.86 333.124 300.179 333.41 300.62L337.86 307.44C338.163 307.899 338.274 308.457 338.172 308.997C338.069 309.536 337.76 310.015 337.31 310.33C331.12 314.71 309.73 329.71 307.97 329C305.9 328.17 292.46 309.77 292.46 309.77L293.7 268Z" fill="white" stroke="#001C3C" stroke-linecap="round" stroke-linejoin="round"/>
<path d="M337.53 297.38C337.53 297.38 346.87 286.02 347.13 286.02C347.39 286.02 350.35 286.35 350.35 286.35C351.452 286.269 352.558 286.269 353.66 286.35C354.26 286.52 354.77 286.69 354.77 286.69C355.773 286.486 356.8 286.429 357.82 286.52C358.5 286.78 361.3 292.97 361.3 292.97C361.168 293.133 361 293.264 360.809 293.352C360.618 293.441 360.41 293.484 360.2 293.48C359.35 293.57 357.82 291.7 357.82 291.7C357.82 291.7 358.5 293.57 357.82 293.65C357.022 293.565 356.246 293.334 355.53 292.97C355.53 292.97 351.8 296.45 350.69 297.56C349.58 298.67 344.75 300.78 344.75 300.78L342.29 303.59L337.53 297.38Z" fill="white" stroke="#001C3C" stroke-linecap="round" stroke-linejoin="round"/>
<path d="M355.53 292.97L357.74 289.41" stroke="#001C3C" stroke-linecap="round" stroke-linejoin="round"/>
<path d="M292.46 309.79L297.17 291.37" stroke="#001C3C" stroke-linecap="round" stroke-linejoin="round"/>
<path d="M316.24 307.31L319.23 310.95" stroke="#001C3C" stroke-linecap="round" stroke-linejoin="round"/>
<path d="M221.12 267.4C221.12 267.4 201.72 314.87 202.34 317.4C202.96 319.93 206.87 327.5 210.58 327.7C214.29 327.9 217.8 323.58 217.8 323.58L222.34 315.13L221.12 267.4Z" fill="white" stroke="#001C3C" stroke-linecap="round" stroke-linejoin="round"/>
<path d="M221.92 295.08L218.83 279.82" stroke="#001C3C" stroke-linecap="round" stroke-linejoin="round"/>
<path d="M221.92 300.85L215.53 290.34" stroke="#001C3C" stroke-linecap="round" stroke-linejoin="round"/>
<path d="M285.38 451.71C285.38 451.71 284.43 461.53 284.78 462.23C285.13 462.93 287.42 463.46 287.42 463.46H302.42C302.42 463.46 302.59 459.94 301.36 458.71C300.443 457.863 299.618 456.921 298.9 455.9C298.21 454.672 297.698 453.352 297.38 451.98L285.38 451.71Z" fill="#001C3C" stroke="#001C3C" stroke-linecap="round" stroke-linejoin="round"/>
<path d="M272.06 378.47L285.38 451.71C285.38 451.71 288.64 454.15 291.38 454.15C294.12 454.15 297.38 451.98 297.38 451.98C297.38 451.98 298.47 447.63 297.93 445.18C297.39 442.73 294.39 439.1 294.67 438.01C294.95 436.92 293.85 377.66 293.85 377.66L272.06 378.47Z" fill="#CFD8DC" stroke="#001C3C" stroke-linecap="round" stroke-linejoin="round"/>
<path d="M335.52 449.86C335.52 449.86 343.36 454.4 345.62 455.43C347.88 456.46 353.25 458.32 354.7 458.32C356.15 458.32 356.76 459.76 356.35 461.2C355.94 462.64 348.1 463.26 343.98 463.47C339.86 463.68 318.41 463.47 318.41 463.47C318.045 461.911 318.045 460.289 318.41 458.73C319.03 456.25 320.06 453.37 320.06 453.37C320.06 453.37 334.08 449.45 335.52 449.86Z" fill="#001C3C" stroke="#001C3C" stroke-linecap="round" stroke-linejoin="round"/>
<path d="M222.57 351.35C222.57 351.35 220.07 365.59 220.27 368.48C220.47 371.37 222.75 377.55 223.57 378.37C224.878 379.405 226.452 380.05 228.11 380.23H320.88L321.3 443.68L319 445.53L320 453.37C322.432 453.258 324.849 452.923 327.22 452.37C330.1 451.54 335.46 449.89 335.46 449.89C335.46 449.89 336.91 443.5 336.29 442.06C335.67 440.62 334.64 437.11 334.64 437.11C334.64 437.11 343.3 363.11 343.09 361.7C342.88 360.29 342.47 358.61 340.82 358.4C339.17 358.19 291 353.22 291 353.22L288.73 348.22L224 349.1L222.57 351.35Z" fill="#CFD8DC" stroke="#001C3C" stroke-linecap="round" stroke-linejoin="round"/>
<path d="M320.88 380.23H336.76" stroke="#001C3C" stroke-linecap="round" stroke-linejoin="round"/>
<path d="M327.07 380.64L337.58 383.32" stroke="#001C3C" stroke-linecap="round" stroke-linejoin="round"/>
<path d="M290.99 353.22L295.32 363.32" stroke="#001C3C" stroke-linecap="round" stroke-linejoin="round"/>
<path d="M261.1 377.75C261.1 377.75 259.86 377.34 257.8 373.84C256.54 371.635 255.83 369.158 255.73 366.62H280.27C280.27 366.62 280.48 372.39 283.36 375.69" stroke="#001C3C" stroke-linecap="round" stroke-linejoin="round"/>
<path d="M238.42 366.41H222.13C222.13 366.41 221.13 373.22 224.6 376.72" stroke="#001C3C" stroke-linecap="round" stroke-linejoin="round"/>
<path d="M246.66 355.9C245.773 359.75 245.436 363.706 245.66 367.65" stroke="#001C3C" stroke-linecap="round" stroke-linejoin="round"/>
<path d="M242 258.1C242 258.1 220.7 265.95 221.11 267.4C221.52 268.85 223 346 223 346C223 346 221.14 347.66 221.56 348.49C221.948 349.434 222.282 350.398 222.56 351.38C222.56 351.38 253.85 356.67 270.36 353.87C283.49 351.64 290.89 351.43 292.86 350.55C294.39 349.88 292.65 347.04 292.45 346.42C292.082 345.696 291.803 344.931 291.62 344.14C291.62 343.52 293.69 268.05 293.69 268.05L278 260.58C278 260.58 265.78 254.37 242 258.1Z" fill="white" stroke="#001C3C" stroke-linecap="round" stroke-linejoin="round"/>
<path d="M283.36 343.53C283.36 343.53 263.98 345.8 249.36 346.62" stroke="#001C3C" stroke-linecap="round" stroke-linejoin="round"/>
<path d="M264.19 347C264.19 347 249.14 349.89 241.1 350.1" stroke="#001C3C" stroke-linecap="round" stroke-linejoin="round"/>
<path d="M274.91 268.9C274.91 268.9 252.23 287 248.72 291.78" stroke="#001C3C" stroke-linecap="round" stroke-linejoin="round"/>
<path d="M252.44 284.15C252.44 284.15 242.33 294.05 240.44 297.35" stroke="#001C3C" stroke-linecap="round" stroke-linejoin="round"/>
<path d="M272 391.44H266.09V441.43H272V391.44Z" fill="#001C3C" stroke="#001C3C" stroke-linecap="round" stroke-linejoin="round"/>
<path d="M242.34 463.42C244.571 463.42 246.38 461.611 246.38 459.38C246.38 457.149 244.571 455.34 242.34 455.34C240.109 455.34 238.3 457.149 238.3 459.38C238.3 461.611 240.109 463.42 242.34 463.42Z" fill="#001C3C" stroke="#001C3C" stroke-linecap="round" stroke-linejoin="round"/>
<path d="M244.36 459.38C244.36 458.984 244.243 458.598 244.023 458.269C243.803 457.94 243.491 457.683 243.125 457.532C242.76 457.381 242.358 457.341 241.97 457.418C241.582 457.495 241.225 457.686 240.946 457.966C240.666 458.245 240.475 458.602 240.398 458.99C240.321 459.378 240.361 459.78 240.512 460.145C240.663 460.511 240.92 460.823 241.249 461.043C241.578 461.263 241.964 461.38 242.36 461.38C242.89 461.38 243.399 461.169 243.774 460.794C244.149 460.419 244.36 459.91 244.36 459.38Z" fill="#001C3C" stroke="#001C3C" stroke-linecap="round" stroke-linejoin="round"/>
<path d="M266.13 442.75C266.13 442.75 264.42 446.75 262.86 447.57C261.3 448.39 244.52 448.81 241.86 449.9C240.857 450.349 240.019 451.101 239.463 452.049C238.908 452.997 238.662 454.095 238.76 455.19H240.76V457.67H242V455.34H244.64C244.723 454.413 245.099 453.538 245.714 452.84C246.329 452.142 247.151 451.659 248.06 451.46C251.33 450.68 262.52 451.46 264.85 450.37C267.18 449.28 268.12 443.06 268.12 443.06L266.13 442.75Z" fill="#001C3C" stroke="#001C3C" stroke-linecap="round" stroke-linejoin="round"/>
<path d="M294.89 463.42C297.121 463.42 298.93 461.611 298.93 459.38C298.93 457.149 297.121 455.34 294.89 455.34C292.659 455.34 290.85 457.149 290.85 459.38C290.85 461.611 292.659 463.42 294.89 463.42Z" fill="#001C3C" stroke="#001C3C" stroke-linecap="round" stroke-linejoin="round"/>
<path d="M292.87 459.38C292.87 458.984 292.987 458.598 293.207 458.269C293.427 457.94 293.739 457.683 294.105 457.532C294.47 457.381 294.872 457.341 295.26 457.418C295.648 457.495 296.005 457.686 296.284 457.966C296.564 458.245 296.755 458.602 296.832 458.99C296.909 459.378 296.869 459.78 296.718 460.145C296.567 460.511 296.31 460.823 295.981 461.043C295.652 461.263 295.266 461.38 294.87 461.38C294.34 461.38 293.831 461.169 293.456 460.794C293.081 460.419 292.87 459.91 292.87 459.38Z" fill="#001C3C" stroke="#001C3C" stroke-linecap="round" stroke-linejoin="round"/>
<path d="M271.1 442.75C271.1 442.75 272.81 446.75 274.37 447.57C275.93 448.39 292.71 448.81 295.37 449.9C296.376 450.347 297.217 451.097 297.774 452.046C298.332 452.994 298.579 454.094 298.48 455.19H296.48V457.67H295.2V455.34H292.55C292.47 454.412 292.095 453.535 291.479 452.837C290.864 452.138 290.04 451.656 289.13 451.46C285.87 450.68 274.68 451.46 272.34 450.37C270 449.28 269.08 443.06 269.08 443.06L271.1 442.75Z" fill="#001C3C" stroke="#001C3C" stroke-linecap="round" stroke-linejoin="round"/>
<path d="M274.67 427.61H263.43V445.37H274.67V427.61Z" fill="#001C3C" stroke="#001C3C" stroke-linecap="round" stroke-linejoin="round"/>
<path d="M257.22 393.21L258.42 398.91H279.4L281.2 393.21H257.22Z" fill="#001C3C" stroke="#001C3C" stroke-linecap="round" stroke-linejoin="round"/>
<path d="M283.3 387.52H255.42V395.61H283.3V387.52Z" fill="#001C3C" stroke="#001C3C" stroke-linecap="round" stroke-linejoin="round"/>
<path d="M215.95 380.67H317.21V384.46C317.21 385.651 316.737 386.793 315.895 387.635C315.053 388.477 313.911 388.95 312.72 388.95H219.78C219.276 388.95 218.776 388.851 218.31 388.658C217.845 388.465 217.421 388.182 217.065 387.825C216.708 387.469 216.425 387.045 216.232 386.579C216.039 386.114 215.94 385.614 215.94 385.11V380.67H215.95Z" fill="#001C3C" stroke="#001C3C" stroke-linecap="round" stroke-linejoin="round"/>
<path d="M274.37 380.67H317.21V385.11C317.21 386.128 316.806 387.105 316.085 387.825C315.365 388.545 314.389 388.95 313.37 388.95H274.37V380.67Z" fill="#001C3C" stroke="#001C3C" stroke-linecap="round" stroke-linejoin="round"/>
<path d="M281.09 305.77C272.366 298.344 261.441 293.997 250 293.4H249.78C238.344 294.003 227.423 298.349 218.7 305.77C215.944 308.124 213.849 311.156 212.621 314.567C211.394 317.978 211.076 321.649 211.7 325.22L221.35 380.67H278.5L288.14 325.22C288.761 321.645 288.437 317.969 287.2 314.558C285.964 311.146 283.857 308.117 281.09 305.77Z" fill="#001C3C" stroke="#001C3C" stroke-linecap="round" stroke-linejoin="round"/>
<path d="M277 305.77C268.274 298.342 257.344 293.995 245.9 293.4H245.68C234.244 294.003 223.323 298.349 214.6 305.77C211.844 308.124 209.749 311.156 208.521 314.567C207.294 317.978 206.976 321.649 207.6 325.22L217.25 380.67H274.4L284 325.22C284.627 321.649 284.311 317.977 283.083 314.565C281.855 311.154 279.758 308.122 277 305.77Z" fill="#001C3C" stroke="#001C3C" stroke-linecap="round" stroke-linejoin="round"/>
<path d="M42.6899 142.66L61.6899 160.41C62.2411 163.44 63.85 166.176 66.2299 168.13C70.3499 171.72 72.3599 173.73 72.3599 173.73L99.9999 151.85C99.9999 151.85 78.9999 138.01 76.2199 135.69C73.8544 133.466 71.6645 131.062 69.6699 128.5L42.6899 142.66Z" fill="white" stroke="#001C3C" stroke-linecap="round" stroke-linejoin="round"/>
<path d="M74.81 149.63C74.81 149.63 72.06 157.14 79 160" stroke="#001C3C" stroke-linecap="round" stroke-linejoin="round"/>
<path d="M73.0399 130.27L36.1299 159.88L31.1699 150.59L65.2499 120.59L73.0399 130.27Z" fill="white" stroke="#001C3C" stroke-linecap="round" stroke-linejoin="round"/>
<path d="M67.73 122.71L27.24 157.98L0 119.84V-0.200195H16.69L18.28 52.9498L34.87 84.7598L67.73 122.71Z" fill="#CFD8DC" stroke="#001C3C" stroke-linecap="round" stroke-linejoin="round"/>
<path d="M165.45 138.32C149.88 120.57 160.45 85.8598 188.98 60.7798C217.51 35.6998 253.34 29.7798 268.92 47.4998C269.913 48.6362 270.81 49.8538 271.6 51.1398C271.431 49.3784 271.14 47.6309 270.73 45.9098L274 43.0698L264 32.5498C263.46 31.9398 262.9 31.3498 262.32 30.7898L261.89 30.3398C243.83 13.5998 206.41 20.6498 176.29 47.0898C146.78 72.9898 134.81 108.25 147.75 128.55L147.53 128.73L148.81 130.11C149.33 130.82 149.88 131.52 150.47 132.19C151.397 133.236 152.399 134.212 153.47 135.11L160.47 142.72L162.82 140.66C165.315 141.607 167.897 142.304 170.53 142.74C168.66 141.483 166.953 139.998 165.45 138.32Z" fill="#001C3C" stroke="#001C3C" stroke-linecap="round" stroke-linejoin="round"/>
<path d="M274 43.0697C256.9 23.5897 217.62 30.1197 186.26 57.6397C154.9 85.1597 143.34 123.27 160.43 142.75C177.52 162.23 216.81 155.7 248.17 128.17C279.53 100.64 291.06 62.5497 274 43.0697ZM245.42 125.07C216.84 150.15 181.06 156.07 165.48 138.35C149.9 120.63 160.48 85.8897 189.01 60.8097C217.54 35.7297 253.37 29.8097 268.95 47.5297C284.53 65.2497 274 99.9997 245.39 125L245.42 125.07Z" fill="white" stroke="#001C3C" stroke-linecap="round" stroke-linejoin="round"/>
<path d="M143.19 113.94C143.19 113.94 139.93 119.06 136.19 123.72C134.213 126.323 131.768 128.534 128.98 130.24L136.66 139.09C136.66 139.09 147.14 131.87 149.66 123.02L143.19 113.94Z" fill="#001C3C" stroke="#001C3C" stroke-linecap="round" stroke-linejoin="round"/>
<path d="M136.67 139.09L141.79 150.73C145.252 149.124 148.833 147.786 152.5 146.73C155.491 146.002 158.523 145.458 161.58 145.1L149.71 123C149.71 123 147.84 131.17 136.67 139.09Z" fill="white" stroke="#001C3C" stroke-linecap="round" stroke-linejoin="round"/>
<path d="M128.99 130.24L133.6 142.23L141.79 150.73L136.67 139.09L128.99 130.24Z" fill="#001C3C" stroke="#001C3C" stroke-linecap="round" stroke-linejoin="round"/>
<path d="M119.39 138.46L130.16 155.84L138.47 147.56L130.59 135.14L119.39 138.46Z" fill="white" stroke="#001C3C" stroke-linecap="round" stroke-linejoin="round"/>
<path d="M119.39 138.46L19.3 197.08L27.06 212.02L130.16 155.84L119.39 138.46Z" fill="#001C3C" stroke="#001C3C" stroke-linecap="round" stroke-linejoin="round"/>
<path d="M19.3001 197.08C19.3001 197.08 18.0001 194.24 17.0001 195.56C16.0001 196.88 14.1601 203.89 16.6201 209.18C19.0801 214.47 27.7901 214.48 27.9701 213.73C28.1501 212.98 27.0301 212.02 27.0301 212.02L19.3001 197.08Z" fill="white" stroke="#001C3C" stroke-linecap="round" stroke-linejoin="round"/>
<path d="M164 136.44L164.27 136.8C164.66 137.31 165.07 137.8 165.5 138.32C165.93 138.84 166.39 139.32 166.86 139.75L167.36 140.22C167.67 140.51 167.98 140.79 168.31 141.06C168.64 141.33 168.72 141.41 168.93 141.58C169.14 141.75 169.58 142.08 169.93 142.32L170.54 142.77C187.9 154.77 219.63 147.72 245.47 125.04C272.2 101.57 283.14 69.6797 271.68 51.1297L271.37 50.6597C277.75 69.5597 266.48 97.5397 242.37 118.66C213.8 143.73 178.01 149.66 162.43 131.94C161.562 130.933 160.77 129.863 160.06 128.74C160.06 128.86 160.14 128.97 160.19 129.09C160.36 129.59 160.55 130.09 160.75 130.56L160.96 131.08C161.2 131.64 161.46 132.18 161.73 132.72C161.8 132.86 161.88 132.99 161.95 133.12C162.21 133.6 162.47 134.12 162.75 134.53L162.94 134.85C163.23 135.42 163.58 135.93 164 136.44Z" fill="#001C3C" stroke="#001C3C" stroke-linecap="round" stroke-linejoin="round"/>
<path d="M182.89 86.8696L173.99 88.8296" stroke="#001C3C" stroke-linecap="round" stroke-linejoin="round"/>
<path d="M274.94 66.6396L188.75 85.5896" stroke="#001C3C" stroke-linecap="round" stroke-linejoin="round"/>
<path d="M209.93 98.1199L220.99 95.3599" stroke="#001C3C" stroke-linecap="round" stroke-linejoin="round"/>
<path d="M165.29 109.28L201.84 100.14" stroke="#001C3C" stroke-linecap="round" stroke-linejoin="round"/>
<path d="M117.6 162.84C117.6 162.84 104.18 154.07 102.39 153.84C100.6 153.61 99.53 154.9 100.06 156.91C100.59 158.92 109.68 168.53 110.94 169.69C112.2 170.85 115.28 171.59 116.86 170.75C118.44 169.91 118.86 167.26 118.66 165.46C118.587 164.498 118.217 163.582 117.6 162.84Z" fill="white" stroke="#001C3C" stroke-linecap="round" stroke-linejoin="round"/>
<path d="M100.06 156.93C100.06 156.93 95.84 151.93 93.3 153.02C92.7694 153.251 92.2902 153.586 91.8905 154.005C91.4907 154.424 91.1784 154.918 90.9718 155.459C90.7651 156 90.6682 156.577 90.6868 157.155C90.7054 157.734 90.8391 158.303 91.08 158.83C91.93 160.73 101.54 177.32 103.76 177.74C105.98 178.16 109.68 175.84 110.42 174.15C111.16 172.46 112.64 171.72 110.94 169.71L108.62 167L100.06 156.93Z" fill="white" stroke="#001C3C" stroke-linecap="round" stroke-linejoin="round"/>
<path d="M91.08 158.83C91.08 158.83 88.44 155.66 86.22 156.4C84 157.14 82.94 160.62 84.11 162.84C85.28 165.06 90.66 173.94 92.35 176.68C94.04 179.42 94.99 182.39 98.58 180.81C102.17 179.23 102.07 176.26 102.07 176.26L91.08 158.83Z" fill="white" stroke="#001C3C" stroke-linecap="round" stroke-linejoin="round"/>
<path d="M85 165C85 165 82.15 162.88 80.35 165.1C78.55 167.32 80.99 172.71 81.94 174.61C82.89 176.51 83.63 181.8 85.32 183.06C87.01 184.32 90.81 185.28 92.5 184.12C94.19 182.96 94.09 180.12 94.09 180.12L85 165Z" fill="white" stroke="#001C3C" stroke-linecap="round" stroke-linejoin="round"/>
<path d="M79.77 142C79.77 142 101.96 137.35 103.13 137.35C104.3 137.35 106.61 139.35 107.04 139.88C107.47 140.41 112.64 146.88 114.33 148.65C116.02 150.42 115.33 152.77 115.33 154.78C115.33 156.79 116.7 161.97 115.33 163.34C113.96 164.71 110.99 163.97 109.33 162.18C107.67 160.39 106.16 151.61 106.16 151.61L99.61 149.18L92.43 152.67" fill="white"/>
<path d="M79.77 142C79.77 142 101.96 137.35 103.13 137.35C104.3 137.35 106.61 139.35 107.04 139.88C107.47 140.41 112.64 146.88 114.33 148.65C116.02 150.42 115.33 152.77 115.33 154.78C115.33 156.79 116.7 161.97 115.33 163.34C113.96 164.71 110.99 163.97 109.33 162.18C107.67 160.39 106.16 151.61 106.16 151.61L99.61 149.18L92.43 152.67" stroke="#001C3C" stroke-linecap="round" stroke-linejoin="round"/>
<path d="M37.04 87.27L14.25 104.03L44.2 95.54L37.04 87.27Z" fill="#001C3C" stroke="#001C3C" stroke-linecap="round" stroke-linejoin="round"/>
<path d="M25.61 67.0098L18.28 52.9498L16.69 -0.200195H0V109.87L25.61 67.0098Z" fill="#001C3C" stroke="#001C3C" stroke-linecap="round" stroke-linejoin="round"/>
</g>
<defs>
<clipPath id="clip0_124_2">
<rect width="500" height="500" fill="white"/>
</clipPath>
</defs>
</svg>
